<svg width="115" height="35" viewBox="0 0 115 35" fill="none" xmlns="http://www.w3.org/2000/svg">
<path d="M33.7686 17.4569C33.7686 10.0555 27.7702 4.05713 20.3688 4.05713C12.9674 4.05713 6.97363 10.0601 6.97363 17.4569C6.97363 24.8537 12.972 30.8567 20.3734 30.8567C22.5032 30.8567 24.5134 30.3599 26.3028 29.4767C25.185 29.1455 24.1132 28.7131 23.092 28.1933C22.2916 27.7839 21.528 27.3193 20.7966 26.8087C20.3964 26.5281 20.0146 26.2337 19.6374 25.9255C18.7036 25.1527 17.8434 24.2925 17.0706 23.3541C16.7624 22.9815 16.468 22.5951 16.1874 22.1949C15.6722 21.4635 15.2122 20.6999 14.8028 19.8995C14.2462 18.8047 13.7908 17.6501 13.4504 16.4495C13.1376 15.3363 12.9214 14.1817 12.8156 12.9995C12.7696 12.5119 12.7328 11.1089 12.7374 11.0261C12.742 10.5293 12.7696 10.0325 12.8156 9.54493H26.5512V11.0077C26.5466 11.0951 26.542 11.1825 26.542 11.2745C26.542 11.3665 26.542 11.4539 26.5512 11.5413V13.0041H16.2794C16.4128 14.2001 16.6796 15.3547 17.0706 16.4541C17.503 17.6823 18.0872 18.8415 18.8002 19.9041C19.0624 20.3043 19.3476 20.6861 19.6466 21.0541C20.332 21.9051 21.1048 22.6733 21.9512 23.3587C22.3238 23.6623 22.7056 23.9429 23.1012 24.2097C24.1684 24.9227 25.3276 25.5069 26.5558 25.9393C27.6552 26.3303 28.8098 26.5971 30.0058 26.7259V26.7857C32.3426 24.3753 33.7824 21.0909 33.7824 17.4661L33.7686 17.4569ZM10.8284 21.0955C9.83943 21.0955 9.03903 20.2951 9.03903 19.3061C9.03903 18.3171 9.83943 17.5167 10.8284 17.5167C11.8174 17.5167 12.6178 18.3217 12.6178 19.3061C12.6178 20.2905 11.8174 21.0955 10.8284 21.0955Z" fill="#F1F2F2"/>
<path d="M26.5429 12.9951V13.0004H26.5376L26.5429 12.9951Z" fill="#F1F2F2"/>
<path d="M37.145 18.7262C37.145 14.7978 39.721 12.2402 43.8748 12.2402C47.7848 12.2402 50.3056 14.1952 50.3056 17.3922V17.6728H47.1638V17.3922C47.1638 15.7362 46.2254 14.9496 43.93 14.9496C41.1654 14.9496 40.1304 15.9294 40.1304 18.7308C40.1304 21.5322 41.1654 22.512 43.93 22.512C46.2254 22.512 47.1638 21.7208 47.1638 20.0694V19.7888H50.3056V20.0694C50.3056 23.2664 47.8032 25.2214 43.8748 25.2214C39.721 25.2214 37.145 22.6638 37.145 18.7354V18.7262Z" fill="#F1F2F2"/>
<path d="M51.5288 25.0288V15.608H54.1416V18.1104H54.3118C54.574 16.5878 55.5722 15.4194 57.472 15.4194C59.5788 15.4194 60.4436 16.8684 60.4436 18.7084V20.2678H57.6238V19.288C57.6238 18.253 57.2098 17.8022 56.0644 17.8022C54.804 17.8022 54.3532 18.3864 54.3532 19.5686V25.0196H51.5334L51.5288 25.0288Z" fill="#F1F2F2"/>
<path d="M61.1758 20.3276C61.1758 17.3192 63.301 15.4194 66.4014 15.4194C69.5018 15.4194 71.535 17.0386 71.535 19.9872C71.535 20.3276 71.4982 20.5714 71.4614 20.8888H63.7886C63.8622 22.3378 64.5384 22.9588 66.3646 22.9588C68.039 22.9588 68.6232 22.5264 68.6232 21.7168V21.5282H71.443V21.7352C71.443 23.7868 69.4512 25.2128 66.4612 25.2128C63.3194 25.2128 61.1758 23.6718 61.1758 20.323V20.3276ZM63.8254 19.4076H68.8256C68.752 18.1656 67.9976 17.6228 66.3416 17.6228C64.6856 17.6228 63.9542 18.1886 63.8208 19.4076H63.8254Z" fill="#F1F2F2"/>
<path d="M84.0699 15.0557L83.6697 15.9251C81.7193 16.6013 79.6769 17.7789 78.8213 19.8673L78.9363 19.5223L80.7993 15.0603H84.0699V15.0557Z" fill="#F1F2F2"/>
<path d="M89.6769 15.2266C89.0283 15.2266 86.1349 15.2266 83.4715 16.2846C81.5533 17.0482 79.4879 18.1476 78.6277 20.2222C78.2919 21.0364 78.0343 21.6896 77.8273 22.214H77.7629L76.9441 19.9048L74.8649 15.4198H71.5391L76.3369 25.273C76.1391 25.7008 75.8263 25.8986 75.0995 25.8986H72.6891V28.562H74.2991C76.7647 28.562 78.0757 27.9962 79.0187 25.94L79.6811 24.4956L81.0703 21.4872C81.5993 20.7512 82.2019 20.1716 82.8367 19.6978C83.3657 19.3114 83.9085 19.0078 84.4467 18.764C86.6961 17.7474 88.8259 17.844 88.8259 17.844C89.0145 17.8256 89.2215 17.8164 89.4515 17.8164C91.0201 17.8164 91.5859 18.166 91.5859 19.4402V19.8128L87.3769 20.2406C85.2793 20.4568 84.2029 21.3538 84.2029 22.8028C84.2029 24.4496 85.4771 25.4248 87.5885 25.4248C89.6999 25.4248 91.1351 24.5094 91.5859 22.9776H91.7469V25.2362H94.4885V19.477C94.4885 16.9148 92.9383 15.2266 89.6723 15.2266H89.6769ZM88.4395 23.3502C87.5793 23.3502 87.1653 23.134 87.1653 22.6096C87.1653 22.1358 87.4781 21.938 88.1819 21.8828L91.5905 21.4872C91.5123 22.881 90.4359 23.3502 88.4395 23.3502Z" fill="#F1F2F2"/>
</svg>
