<svg width="116" height="36" viewBox="0 0 116 36" fill="none" xmlns="http://www.w3.org/2000/svg">
<path d="M31.0406 17.9974C31.0406 10.5788 25.0282 4.56641 17.6095 4.56641C10.1909 4.56641 4.18311 10.5834 4.18311 17.9974C4.18311 25.4115 10.1955 31.4285 17.6141 31.4285C19.7489 31.4285 21.7638 30.9305 23.5574 30.0453C22.437 29.7133 21.3627 29.2799 20.3391 28.7589C19.5368 28.3485 18.7714 27.8828 18.0383 27.371C17.6372 27.0898 17.2545 26.7947 16.8764 26.4858C15.9404 25.7112 15.0782 24.849 14.3036 23.9084C13.9947 23.5349 13.6996 23.1476 13.4184 22.7465C12.902 22.0134 12.4409 21.248 12.0306 20.4457C11.4727 19.3484 11.0162 18.1911 10.675 16.9877C10.3615 15.8719 10.1448 14.7146 10.0387 13.5297C9.99262 13.0409 9.95573 11.6346 9.96034 11.5517C9.96495 11.0537 9.99262 10.5557 10.0387 10.067H23.8063V11.5332C23.8017 11.6208 23.7971 11.7084 23.7971 11.8006C23.7971 11.8928 23.7971 11.9804 23.8063 12.0681V13.5343H13.5014C13.6351 14.7331 13.9025 15.8903 14.2944 16.9923C14.7278 18.2234 15.3134 19.3853 16.0281 20.4503C16.2909 20.8515 16.5767 21.2342 16.8764 21.603C17.5634 22.456 18.338 23.226 19.1864 23.913C19.5599 24.2173 19.9426 24.4986 20.3391 24.766C21.4088 25.4806 22.5707 26.0662 23.8017 26.4996C24.9037 26.8915 26.061 27.1589 27.2598 27.288V27.348C29.602 24.932 31.0452 21.6399 31.0452 18.0067L31.0406 17.9974ZM8.04689 21.6445C7.05559 21.6445 6.25332 20.8423 6.25332 19.851C6.25332 18.8596 7.05559 18.0574 8.04689 18.0574C9.0382 18.0574 9.84046 18.8643 9.84046 19.851C9.84046 20.8376 9.0382 21.6445 8.04689 21.6445Z" fill="#111111"/>
<path d="M34.4253 19.2702C34.4253 15.3326 37.0073 12.769 41.1708 12.769C45.0899 12.769 47.6166 14.7286 47.6166 17.9331V18.2143H44.4674V17.9331C44.4674 16.2732 43.5269 15.4848 41.2261 15.4848C38.4551 15.4848 37.4177 16.4668 37.4177 19.2748C37.4177 22.0827 38.4551 23.0648 41.2261 23.0648C43.5269 23.0648 44.4674 22.2717 44.4674 20.6165V20.3352H47.6166V20.6165C47.6166 23.8209 45.1083 25.7805 41.1708 25.7805C37.0073 25.7805 34.4253 23.2169 34.4253 19.2794V19.2702Z" fill="#111111"/>
<path d="M48.8428 25.5874V16.1446H51.4617V18.6528H51.6323C51.8951 17.1267 52.8956 15.9556 54.7998 15.9556C56.9115 15.9556 57.7784 17.4079 57.7784 19.2522V20.8153H54.952V19.8332C54.952 18.7958 54.537 18.3439 53.3889 18.3439C52.1256 18.3439 51.6738 18.9295 51.6738 20.1144V25.5781H48.8474L48.8428 25.5874Z" fill="#111111"/>
<path d="M58.5117 20.8752C58.5117 17.8598 60.6419 15.9556 63.7495 15.9556C66.8571 15.9556 68.8951 17.5785 68.8951 20.534C68.8951 20.8752 68.8582 21.1196 68.8213 21.4377H61.1306C61.2044 22.8901 61.8822 23.5125 63.7126 23.5125C65.3909 23.5125 65.9765 23.0791 65.9765 22.2676V22.0786H68.8029V22.2861C68.8029 24.3425 66.8064 25.7718 63.8094 25.7718C60.6603 25.7718 58.5117 24.2272 58.5117 20.8706V20.8752ZM61.1675 19.9531H66.1793C66.1056 18.7082 65.3494 18.1641 63.6896 18.1641C62.0297 18.1641 61.2966 18.7312 61.1629 19.9531H61.1675Z" fill="#111111"/>
<path d="M81.4596 15.5908L81.0584 16.4622C79.1035 17.14 77.0563 18.3204 76.1987 20.4136L76.314 20.0678L78.1813 15.5954H81.4596V15.5908Z" fill="#111111"/>
<path d="M87.0795 15.7617C86.4294 15.7617 83.5292 15.7617 80.8596 16.8222C78.937 17.5876 76.8667 18.6895 76.0045 20.769C75.6679 21.5851 75.4098 22.2398 75.2023 22.7654H75.1377L74.317 20.4508L72.233 15.9554H68.8994L73.7084 25.8315C73.5101 26.2603 73.1966 26.4586 72.4681 26.4586H70.0521V29.1282H71.6658C74.1372 29.1282 75.4512 28.5611 76.3964 26.5001L77.0604 25.0523L78.4528 22.0369C78.9831 21.2992 79.5871 20.7182 80.2233 20.2433C80.7536 19.856 81.2976 19.5517 81.8371 19.3074C84.0917 18.2884 86.2265 18.3852 86.2265 18.3852C86.4156 18.3668 86.623 18.3576 86.8536 18.3576C88.4258 18.3576 88.9929 18.708 88.9929 19.9851V20.3586L84.7741 20.7874C82.6716 21.0041 81.5927 21.9032 81.5927 23.3556C81.5927 25.0062 82.8699 25.9837 84.9862 25.9837C87.1025 25.9837 88.5411 25.0662 88.9929 23.5308H89.1543V25.7947H91.9023V20.022C91.9023 17.4539 90.3485 15.7617 87.0749 15.7617H87.0795ZM85.8392 23.9043C84.977 23.9043 84.562 23.6876 84.562 23.1619C84.562 22.687 84.8756 22.4888 85.581 22.4334L88.9976 22.0369C88.9192 23.434 87.8403 23.9043 85.8392 23.9043Z" fill="#111111"/>
</svg>
