<svg width="108" height="30" viewBox="0 0 108 30" fill="none" xmlns="http://www.w3.org/2000/svg">
<path d="M28.2801 20.022V2.79168C28.261 1.35582 27.1121 0.187988 25.676 0.187988H7.67668C3.78961 0.245423 0.668457 3.42346 0.668457 7.329C0.668457 8.64999 1.01312 9.76038 1.56842 10.7559C2.02798 11.5791 2.73646 12.3449 3.44494 12.9384C3.63642 13.0916 3.54068 13.0341 4.15342 13.417C4.99594 13.9339 5.95335 14.1828 5.95335 14.1828V24.4827C5.95335 24.9614 6.01079 25.44 6.14483 25.8803C6.54694 27.3353 7.54265 28.4457 8.92131 28.9818C9.49576 29.2115 10.1468 29.3647 10.8361 29.3647L25.1973 29.4221C28.0695 29.4221 30.3864 27.1056 30.3864 24.2338C30.3864 22.5108 29.5439 20.9984 28.261 20.0411L28.2801 20.022Z" fill="#FFEEDA"/>
<path d="M41.3389 8.24797C39.3475 8.24797 37.7965 9.37752 37.7965 11.0623C37.7965 12.747 39.0986 13.2639 40.707 13.5702L42.7559 13.8957C45.4558 14.3552 47.3323 15.5804 47.3323 18.5479C47.3323 21.5153 44.7856 23.4298 41.5687 23.4298C38.6582 23.4298 35.92 21.7068 35.5179 18.3564C35.4796 18.0692 35.7093 17.8204 35.9774 17.8204H37.2029C37.4327 17.8204 37.6433 17.9927 37.6625 18.2224C37.9497 20.5964 39.7879 21.5345 41.5878 21.5345C43.5601 21.5345 45.1302 20.5581 45.1302 18.5862C45.1302 16.8248 43.8665 16.2122 42.2197 15.9059L40.2092 15.5421C37.3944 15.0635 35.6136 13.7234 35.6136 11.1388C35.6136 8.15225 38.2178 6.3335 41.3581 6.3335C43.8665 6.3335 46.6238 7.75021 47.1599 11.0814C47.1982 11.3686 46.9876 11.6175 46.7004 11.6175H45.4366C45.2068 11.6175 45.0154 11.4643 44.9771 11.2346C44.6132 9.01377 42.9856 8.20968 41.3772 8.20968L41.3389 8.24797Z" fill="white" fill-opacity="0.87"/>
<path d="M55.4705 10.0861C58.4959 10.0861 60.6405 11.6943 61.3873 14.3171C61.483 14.6235 61.2532 14.9106 60.9277 14.9106H59.5107C59.3001 14.9106 59.1278 14.7766 59.0703 14.5852C58.5342 13.0919 57.3278 12.2304 55.4705 12.2304C52.9429 12.2304 51.5451 14.2789 51.5451 16.7485C51.5451 19.2182 52.9621 21.2667 55.4705 21.2667C57.3278 21.2667 58.5533 20.4052 59.0703 18.9119C59.1278 18.7204 59.3193 18.5864 59.5107 18.5864H60.9277C61.2341 18.5864 61.4638 18.8927 61.3873 19.1799C60.583 21.9176 58.4959 23.4109 55.4705 23.4109C51.5834 23.4109 49.1133 20.4052 49.1133 16.7294C49.1133 13.0536 51.5834 10.0479 55.4705 10.0479V10.0861Z" fill="white" fill-opacity="0.87"/>
<path d="M63.6662 21.3241H66.7108V12.8813H63.9917C63.7236 12.8813 63.5322 12.6707 63.5322 12.4218V11.2157C63.5322 10.9477 63.7428 10.7562 63.9917 10.7562H67.6873C68.4724 10.7562 69.1043 11.388 69.0851 12.1729V12.5175C69.7553 10.9094 71.1914 10.5073 73.4318 10.5073C74.2934 10.5073 74.8679 10.6413 75.1934 10.7754C75.3849 10.8519 75.4998 11.0242 75.4998 11.2157V12.4601C75.4998 12.7856 75.1934 12.9961 74.887 12.9004C74.4849 12.7664 73.9296 12.6515 73.1828 12.6515C70.7893 12.6515 69.0851 14.2788 69.0851 17.1123V21.3624H72.9914C73.2594 21.3624 73.4509 21.573 73.4509 21.8219V23.028C73.4509 23.296 73.2403 23.4875 72.9914 23.4875H63.6471C63.379 23.4875 63.1875 23.2769 63.1875 23.028V21.8219C63.1875 21.5539 63.3981 21.3624 63.6471 21.3624L63.6662 21.3241Z" fill="white" fill-opacity="0.87"/>
<path d="M77.2988 16.7675C77.2988 13.0917 79.7498 10.0859 83.6943 10.0859C87.6388 10.0859 90.0898 13.0917 90.0898 16.7675C90.0898 20.4433 87.6388 23.449 83.6943 23.449C79.7498 23.449 77.2988 20.4433 77.2988 16.7675ZM83.6943 21.2856C86.241 21.2856 87.6963 19.2372 87.6963 16.7675C87.6963 14.2978 86.2219 12.2493 83.6943 12.2493C81.1668 12.2493 79.6923 14.2978 79.6923 16.7675C79.6923 19.2372 81.1668 21.2856 83.6943 21.2856Z" fill="white" fill-opacity="0.87"/>
<path d="M95.4137 21.4196H99.0902C99.3582 21.4196 99.5497 21.6302 99.5497 21.8791V22.9704C99.5497 23.2384 99.3391 23.4299 99.0902 23.4299H93.5946C93.3266 23.4299 93.1351 23.2193 93.1351 22.9704V8.51606H91.316C91.0479 8.51606 90.8564 8.30547 90.8564 8.05659V6.96533C90.8564 6.69731 91.0671 6.50586 91.316 6.50586H94.035C94.8201 6.50586 95.4329 7.13764 95.4329 7.90343V21.4196H95.4137Z" fill="white" fill-opacity="0.87"/>
<path d="M103.532 21.4196H107.209C107.477 21.4196 107.668 21.6302 107.668 21.8791V22.9704C107.668 23.2384 107.458 23.4299 107.209 23.4299H101.713C101.445 23.4299 101.254 23.2193 101.254 22.9704V8.51606H99.4347C99.1666 8.51606 98.9751 8.30547 98.9751 8.05659V6.96533C98.9751 6.69731 99.1857 6.50586 99.4347 6.50586H102.154C102.939 6.50586 103.552 7.13764 103.552 7.90343V21.4196H103.532Z" fill="white" fill-opacity="0.87"/>
<path d="M28.6245 24.3299C28.567 26.1678 27.0543 27.6419 25.197 27.6419L15.2974 27.6036C16.0824 26.6847 16.5611 25.4977 16.5611 24.215C16.5611 22.1857 15.3548 20.7881 15.3548 20.7881H25.197C27.0926 20.7881 28.6245 22.3197 28.6245 24.215V24.3299Z" fill="#EBC28E"/>
<path d="M4.3832 11.4451C3.25346 10.373 2.44924 8.97544 2.44924 7.30984V7.13754C2.54498 4.32326 4.8619 2.04503 7.69583 1.94931H25.676C26.1547 1.94931 26.5185 2.31306 26.5185 2.77253V17.9926C26.9397 18.0692 27.1312 18.1266 27.5333 18.2607C27.8397 18.3755 28.2801 18.6244 28.2801 18.6244V2.79168C28.261 1.35582 27.1121 0.187988 25.6568 0.187988H7.67668C3.78961 0.245423 0.668457 3.42345 0.668457 7.32899C0.668457 9.58807 1.70246 11.5217 3.3875 12.881C3.50238 12.9767 3.61727 13.0916 3.92364 13.0916C4.45979 13.0916 4.82361 12.6704 4.80446 12.2109C4.80446 11.828 4.63213 11.694 4.3832 11.4643V11.4451Z" fill="#190904"/>
<path d="M25.197 19.0072H11.0848C10.1465 19.0072 9.38057 19.7921 9.38057 20.7302V22.7596C9.39972 23.6977 10.2039 24.5018 11.1422 24.5018H12.1954V22.7596H11.1422V20.7877H11.7166C13.4974 20.7877 14.7995 22.4533 14.7995 24.2146C14.7995 25.7845 13.3825 27.7947 10.9699 27.6224C8.84442 27.4884 7.69553 25.593 7.69553 24.2146V7.02257C7.69553 6.23763 7.06365 5.625 6.29772 5.625H4.8999V7.38632H5.95305V24.2337C5.89561 27.6607 8.38487 29.3837 10.989 29.3837L25.197 29.422C28.0692 29.422 30.3861 27.1055 30.3861 24.2337C30.3861 21.362 28.0692 19.0455 25.197 19.0455V19.0072ZM28.6245 24.3103C28.567 26.1482 27.0543 27.6224 25.197 27.6224L15.2974 27.5841C16.0824 26.6651 16.5611 25.4782 16.5611 24.1955C16.5611 22.1661 15.3548 20.7685 15.3548 20.7685H25.197C27.0926 20.7685 28.6245 22.3001 28.6245 24.1955V24.3103Z" fill="#190904"/>
<path d="M10.7793 5.93164H21.4065C21.8852 5.93164 22.2873 6.33368 22.2873 6.8123C22.2873 7.29092 21.8852 7.69296 21.4065 7.69296H10.7793V5.93164Z" fill="#190904"/>
<path d="M10.7793 14.2017H21.4065C21.8852 14.2017 22.2873 14.6037 22.2873 15.0823C22.2873 15.5609 21.8852 15.963 21.4065 15.963H10.7793V14.2017Z" fill="#190904"/>
<path d="M10.7793 10.0669H23.283C23.7618 10.0669 24.1639 10.4689 24.1639 10.9476C24.1639 11.4262 23.7618 11.8282 23.283 11.8282H10.7793V10.0669Z" fill="#190904"/>
</svg>
