<svg width="107" height="30" viewBox="0 0 107 30" fill="none" xmlns="http://www.w3.org/2000/svg">
<path d="M27.6116 19.834V2.60369C27.5925 1.16783 26.4436 0 25.0075 0H7.00823C3.12115 0.0574344 0 3.23547 0 7.14101C0 8.462 0.344667 9.5724 0.899964 10.5679C1.35952 11.3912 2.068 12.1569 2.77648 12.7504C2.96797 12.9036 2.87222 12.8462 3.48497 13.2291C4.32748 13.746 5.28489 13.9948 5.28489 13.9948V24.2947C5.28489 24.7734 5.34234 25.252 5.47637 25.6923C5.87849 27.1473 6.87419 28.2577 8.25286 28.7938C8.8273 29.0235 9.47834 29.1767 10.1677 29.1767L24.5288 29.2341C27.401 29.2341 29.7179 26.9176 29.7179 24.0459C29.7179 22.3228 28.8754 20.8104 27.5925 19.8532L27.6116 19.834Z" fill="#FFEEDA"/>
<path d="M40.6704 8.05999C38.679 8.05999 37.128 9.18953 37.128 10.8743C37.128 12.559 38.4301 13.0759 40.0386 13.3822L42.0874 13.7077C44.7873 14.1672 46.6638 15.3924 46.6638 18.3599C46.6638 21.3273 44.1171 23.2418 40.9002 23.2418C37.9897 23.2418 35.2515 21.5188 34.8494 18.1684C34.8111 17.8813 35.0409 17.6324 35.309 17.6324H36.5344C36.7642 17.6324 36.9749 17.8047 36.994 18.0344C37.2812 20.4084 39.1194 21.3465 40.9194 21.3465C42.8916 21.3465 44.4618 20.3701 44.4618 18.3982C44.4618 16.6368 43.198 16.0242 41.5513 15.7179L39.5407 15.3541C36.7259 14.8755 34.9451 13.5354 34.9451 10.9508C34.9451 7.96426 37.5493 6.14551 40.6896 6.14551C43.198 6.14551 45.9553 7.56222 46.4915 10.8934C46.5298 11.1806 46.3192 11.4295 46.0319 11.4295H44.7682C44.5384 11.4295 44.3469 11.2763 44.3086 11.0466C43.9448 8.82578 42.3172 8.0217 40.7087 8.0217L40.6704 8.05999Z" fill="#070707"/>
<path d="M54.802 9.89815C57.8274 9.89815 59.972 11.5063 60.7188 14.1292C60.8145 14.4355 60.5848 14.7226 60.2592 14.7226H58.8423C58.6316 14.7226 58.4593 14.5886 58.4019 14.3972C57.8657 12.9039 56.6594 12.0424 54.802 12.0424C52.2745 12.0424 50.8766 14.0909 50.8766 16.5605C50.8766 19.0302 52.2936 21.0787 54.802 21.0787C56.6594 21.0787 57.8849 20.2172 58.4019 18.7239C58.4593 18.5325 58.6508 18.3984 58.8423 18.3984H60.2592C60.5656 18.3984 60.7954 18.7048 60.7188 18.9919C59.9146 21.7296 57.8274 23.2229 54.802 23.2229C50.9149 23.2229 48.4448 20.2172 48.4448 16.5414C48.4448 12.8656 50.9149 9.85986 54.802 9.85986V9.89815Z" fill="#070707"/>
<path d="M62.9973 21.1357H66.0418V12.6928H63.3228C63.0547 12.6928 62.8632 12.4822 62.8632 12.2333V11.0272C62.8632 10.7592 63.0738 10.5677 63.3228 10.5677H67.0184C67.8034 10.5677 68.4353 11.1995 68.4162 11.9844V12.3291C69.0864 10.7209 70.5225 10.3188 72.7628 10.3188C73.6245 10.3188 74.1989 10.4529 74.5244 10.5869C74.7159 10.6635 74.8308 10.8358 74.8308 11.0272V12.2716C74.8308 12.5971 74.5244 12.8077 74.2181 12.7119C73.816 12.5779 73.2607 12.4631 72.5139 12.4631C70.1204 12.4631 68.4162 14.0904 68.4162 16.9238V21.1739H72.3224C72.5905 21.1739 72.782 21.3845 72.782 21.6334V22.8395C72.782 23.1076 72.5713 23.299 72.3224 23.299H62.9781C62.71 23.299 62.5186 23.0884 62.5186 22.8395V21.6334C62.5186 21.3654 62.7292 21.1739 62.9781 21.1739L62.9973 21.1357Z" fill="#070707"/>
<path d="M76.6304 16.5795C76.6304 12.9037 79.0813 9.89795 83.0259 9.89795C86.9704 9.89795 89.4213 12.9037 89.4213 16.5795C89.4213 20.2553 86.9704 23.261 83.0259 23.261C79.0813 23.261 76.6304 20.2553 76.6304 16.5795ZM83.0259 21.0977C85.5726 21.0977 87.0278 19.0492 87.0278 16.5795C87.0278 14.1098 85.5534 12.0613 83.0259 12.0613C80.4983 12.0613 79.0239 14.1098 79.0239 16.5795C79.0239 19.0492 80.4983 21.0977 83.0259 21.0977Z" fill="#070707"/>
<path d="M94.7453 21.2317H98.4217C98.6898 21.2317 98.8813 21.4423 98.8813 21.6911V22.7824C98.8813 23.0504 98.6706 23.2419 98.4217 23.2419H92.9262C92.6581 23.2419 92.4666 23.0313 92.4666 22.7824V8.32807H90.6475C90.3795 8.32807 90.188 8.11748 90.188 7.8686V6.77735C90.188 6.50932 90.3986 6.31787 90.6475 6.31787H93.3666C94.1517 6.31787 94.7644 6.94965 94.7644 7.71544V21.2317H94.7453Z" fill="#070707"/>
<path d="M102.864 21.2317H106.541C106.809 21.2317 107 21.4423 107 21.6911V22.7824C107 23.0504 106.79 23.2419 106.541 23.2419H101.045C100.777 23.2419 100.586 23.0313 100.586 22.7824V8.32807H98.7667C98.4986 8.32807 98.3071 8.11748 98.3071 7.8686V6.77735C98.3071 6.50932 98.5178 6.31787 98.7667 6.31787H101.486C102.271 6.31787 102.884 6.94965 102.884 7.71544V21.2317H102.864Z" fill="#070707"/>
<path d="M27.956 24.1419C27.8986 25.9798 26.3859 27.4539 24.5285 27.4539L14.6289 27.4156C15.414 26.4967 15.8927 25.3097 15.8927 24.027C15.8927 21.9977 14.6864 20.6001 14.6864 20.6001H24.5285C26.4242 20.6001 27.956 22.1317 27.956 24.027V24.1419Z" fill="#EBC28E"/>
<path d="M3.71474 11.2571C2.585 10.185 1.78078 8.78745 1.78078 7.12185V6.94955C1.87652 4.13527 4.19345 1.85704 7.02737 1.76132H25.0075C25.4862 1.76132 25.85 2.12507 25.85 2.58454V17.8046C26.2713 17.8812 26.4628 17.9386 26.8649 18.0727C27.1712 18.1875 27.6116 18.4364 27.6116 18.4364V2.60369C27.5925 1.16783 26.4436 0 24.9883 0H7.00823C3.12115 0.0574343 0 3.23547 0 7.141C0 9.40008 1.034 11.3337 2.71904 12.693C2.83393 12.7887 2.94882 12.9036 3.25519 12.9036C3.79134 12.9036 4.15515 12.4824 4.136 12.0229C4.136 11.64 3.96367 11.506 3.71474 11.2763V11.2571Z" fill="#190904"/>
<path d="M24.5285 18.8192H10.4163C9.47804 18.8192 8.71212 19.6042 8.71212 20.5423V22.5716C8.73126 23.5097 9.53549 24.3138 10.4737 24.3138H11.5269V22.5716H10.4737V20.5997H11.0482C12.829 20.5997 14.131 22.2653 14.131 24.0266C14.131 25.5965 12.7141 27.6067 10.3014 27.4344C8.17597 27.3004 7.02708 25.405 7.02708 24.0266V6.83458C7.02708 6.04965 6.39519 5.43701 5.62926 5.43701H4.23145V7.19833H5.28459V24.0458C5.22715 27.4727 7.71641 29.1957 10.3206 29.1957L24.5285 29.234C27.4007 29.234 29.7177 26.9175 29.7177 24.0458C29.7177 21.174 27.4007 18.8575 24.5285 18.8575V18.8192ZM27.956 24.1223C27.8986 25.9602 26.3859 27.4344 24.5285 27.4344L14.6289 27.3961C15.414 26.4771 15.8927 25.2902 15.8927 24.0075C15.8927 21.9781 14.6863 20.5805 14.6863 20.5805H24.5285C26.4242 20.5805 27.956 22.1121 27.956 24.0075V24.1223Z" fill="#190904"/>
<path d="M10.1108 5.74365H20.7381C21.2168 5.74365 21.6189 6.14569 21.6189 6.62431C21.6189 7.10293 21.2168 7.50497 20.7381 7.50497H10.1108V5.74365Z" fill="#190904"/>
<path d="M10.1108 14.0142H20.7381C21.2168 14.0142 21.6189 14.4162 21.6189 14.8948C21.6189 15.3734 21.2168 15.7755 20.7381 15.7755H10.1108V14.0142Z" fill="#190904"/>
<path d="M10.1108 9.87842H22.6146C23.0933 9.87842 23.4954 10.2805 23.4954 10.7591C23.4954 11.2377 23.0933 11.6397 22.6146 11.6397H10.1108V9.87842Z" fill="#190904"/>
</svg>
