<svg width="3803" height="3532" viewBox="0 0 3803 3532" fill="none" xmlns="http://www.w3.org/2000/svg">
<path d="M668.954 2066.5C651.881 2030.43 630.722 1995.75 600.855 1969.17C577.332 1948.27 550.548 1945.46 520.559 1947.61C503.768 1948.84 487.112 1950.02 470.321 1951.25C466.009 1951.6 447.888 1953.58 447.447 1945.91C447.186 1941.42 455.367 1937.37 459.599 1935.72C486.27 1925.1 512.266 1916.74 537.538 1910.72C545.179 1908.89 553.821 1907.73 563.417 1907.32C599.692 1905.79 621.486 1926.3 638.741 1955.85C658.256 1989.16 677.946 2022.56 697.646 2055.74C718.982 2091.55 740.742 2125.75 774.161 2150.87C816.567 2182.67 874.694 2190.6 925.935 2183.29C952.59 2179.52 975.075 2173.79 1003.92 2166.89C1023.95 2162.08 1039.74 2163.28 1059.24 2170.18C1094.08 2182.59 1132.94 2193.12 1171.4 2194.05C1192.06 2194.51 1212 2190.68 1231.33 2182.4C1252.47 2173.3 1270.32 2162.95 1284.89 2151.47C1310.49 2131.23 1319.07 2103.74 1320.87 2072.17C1322.76 2039.85 1322.5 2011.59 1329.69 1983.11C1330.81 1978.59 1337.44 1960.2 1345.22 1965.99C1349.04 1968.79 1349.13 1976.27 1348.86 1980.69C1348.04 1997.03 1347 2013.37 1346.94 2029.8C1346.86 2048.95 1346.69 2068.06 1346.47 2087.25C1346.23 2109.17 1344.72 2131.54 1336.5 2151.56C1330.72 2165.73 1323.97 2168.63 1309.44 2174.65C1297.6 2179.52 1286.6 2185.78 1276.21 2193.4C1268.45 2199.17 1257.19 2209.4 1248.99 2215.14C1220.21 2235.34 1186.64 2241.91 1151.8 2237.95C1132.02 2235.69 1112.9 2229.35 1092.04 2223.06C1060.65 2213.7 1022.13 2206.9 989.169 2211.52C952.793 2216.54 917.827 2222.11 880.94 2217.94C849.085 2214.37 817.686 2205.23 786.608 2190.55C746.138 2171.36 713.067 2150.79 691.774 2111.81C684.465 2098.16 676.813 2083.07 668.954 2066.5Z" fill="#F9FAFB"/>
<path d="M1989.32 2706.17C2015.28 2685.67 2044.34 2674.66 2076.74 2669.39C2119.33 2662.44 2162.16 2657.33 2205.08 2654.1C2223.72 2652.64 2243.34 2645.67 2258.16 2633.75C2272.94 2621.7 2286.79 2609.48 2293.14 2593.67C2296.07 2586.5 2298.64 2576.49 2301.07 2569.83C2317.14 2526.73 2352.05 2492.33 2388.65 2465.83C2398.21 2458.89 2406.39 2453.82 2413.24 2450.52C2417.3 2448.54 2435.04 2440.87 2434.5 2449.48C2434.33 2451.44 2431.42 2454.64 2429.47 2456.3C2419.73 2464.4 2409.36 2472.61 2400.77 2481.11C2364.92 2516.59 2331.82 2559.07 2317.32 2608.42C2308.24 2639.29 2294.3 2699 2248.65 2686.89C2234.97 2683.32 2220.28 2681.37 2204.49 2681.2C2160.78 2680.68 2116.65 2679.47 2073.41 2687.2C2060.82 2689.49 2048.85 2693.16 2037.23 2698.27C2025.09 2703.67 2011.35 2712.41 1998.72 2719.94C1994.82 2722.24 1977.11 2729.47 1980.69 2716.59C1981.82 2713.1 1985.84 2708.93 1989.32 2706.17Z" fill="#F9FAFB"/>
<path d="M2580.02 2173.2C2576.29 2168.16 2571.53 2164.16 2565.71 2161.05C2550.86 2153.18 2535.82 2145.66 2520.64 2138.41C2490.36 2123.94 2454.93 2119.2 2427.31 2141.86C2407.1 2158.34 2398.18 2179.23 2395.46 2204.58C2393.28 2225.89 2389.92 2243.12 2375.24 2259.11C2366.9 2268.21 2357.47 2276.36 2347.46 2283.51C2337.95 2290.37 2327.88 2296.79 2317.5 2302.14C2296.37 2313.07 2273.47 2320.18 2251.23 2328.56C2236.36 2334.16 2222.34 2344.01 2210.87 2355.03C2196 2369.32 2184.05 2387.62 2172.05 2405.78C2160.11 2423.86 2144.78 2438.35 2126.06 2449.48C2103.34 2462.85 2078.01 2475.59 2055.69 2485.98C2032.73 2496.71 2008.52 2499.77 1982.97 2495.35C1965.15 2492.23 1943.96 2489.43 1919.18 2486.92C1896.67 2484.64 1874.36 2480.75 1857.08 2464.9C1835.82 2445.49 1822.41 2417.04 1811.62 2390.28C1800.14 2361.87 1789.98 2332.71 1772.69 2307.37C1755.01 2281.48 1727.52 2274.15 1697.76 2273C1684.35 2272.45 1670.91 2271.75 1657.56 2270.88C1644.13 2269.96 1630.65 2268.91 1617.19 2267.63C1604.39 2266.38 1591.57 2264.78 1578.68 2263.7C1566.24 2262.65 1553.72 2262.12 1541.28 2263.13C1531.22 2263.96 1521.21 2265.74 1511.63 2269.01C1502.91 2271.96 1494.64 2276.18 1487.08 2281.37C1478.6 2287.19 1471.15 2294.27 1464.42 2302.09C1462.11 2304.81 1459.84 2307.67 1457.66 2310.58C1430.83 2346.7 1413.62 2386.9 1406.19 2430.9C1403.48 2446.54 1400.81 2467.69 1398.89 2484.8C1395.16 2518.4 1389.24 2551 1381.07 2582.71C1373.79 2611.14 1365.39 2641.01 1359.42 2670.39C1353.65 2699.42 1356.26 2735.61 1338.17 2760.46C1332.57 2768.1 1322.75 2779.24 1328.4 2789.68C1336.66 2805.33 1362.72 2794.15 1371.72 2786.56C1381.37 2778.41 1385.09 2767.56 1385.74 2755.23C1388.82 2702.77 1395.5 2652.06 1409.66 2601.27C1422.12 2556.62 1428.85 2513.26 1433.68 2467.36C1439.95 2407.06 1456.36 2333.18 1520.01 2308.61C1531.65 2304.09 1543.52 2299.79 1555.84 2297.35C1567.94 2294.9 1580.26 2294.52 1592.65 2294.63C1604.43 2294.63 1616.26 2295.35 1627.98 2296.46C1639.8 2297.62 1651.54 2299.32 1663.23 2301.33C1675.4 2303.49 1687.47 2306.06 1699.4 2308.88C1700.99 2309.31 1702.63 2309.64 1704.22 2310.07C1741.14 2318.95 1753.61 2347.22 1766.43 2379.22C1776.15 2403.57 1785.05 2423.23 1798.81 2445.24C1823.73 2485.31 1861.57 2513.79 1904.99 2531.98C1917.8 2537.35 1931.27 2541.71 1944.64 2542.94C1965.02 2544.73 1987.33 2540.16 2005.92 2535.47C2034.63 2528.39 2062.96 2519.94 2090.9 2510.14C2110.43 2503.34 2127.17 2495.81 2141.16 2487.66C2161.94 2475.5 2174.41 2460 2187.1 2439.94C2203.15 2414.64 2227.5 2395.2 2250.28 2374.89C2258 2367.96 2264.03 2363.06 2268.36 2359.98C2280.17 2351.65 2293.04 2345.74 2306.99 2341.8C2318.08 2338.68 2329.32 2336.33 2340.14 2332.49C2362.95 2324.31 2384.32 2309.84 2399.95 2291.29C2413.79 2274.95 2422.99 2255.01 2426.25 2233.84C2430.43 2206.44 2431.97 2171.64 2465.4 2163.28C2494.93 2155.96 2524.3 2173.11 2549.11 2186.73C2555.93 2190.5 2565.03 2194.51 2572.82 2193.44C2582.97 2191.63 2585.78 2180.96 2580.02 2173.2Z" fill="#F9FAFB"/>
<path d="M2570.18 1656.12C2596.15 1635.63 2625.21 1624.62 2657.61 1619.35C2700.2 1612.39 2743.02 1607.28 2785.95 1604.06C2804.59 1602.6 2824.21 1595.63 2839.03 1583.71C2853.81 1571.66 2867.66 1559.43 2874 1543.63C2876.94 1536.46 2879.51 1526.45 2881.93 1519.79C2898.01 1476.68 2932.92 1442.29 2969.52 1415.79C2979.08 1408.85 2987.25 1403.77 2994.11 1400.48C2998.17 1398.5 3015.9 1390.82 3015.37 1399.44C3015.19 1401.4 3012.29 1404.59 3010.34 1406.26C3000.6 1414.36 2990.23 1422.56 2981.64 1431.07C2945.79 1466.55 2912.69 1509.03 2898.19 1558.38C2889.11 1589.24 2875.17 1648.95 2829.52 1636.85C2815.84 1633.28 2801.15 1631.32 2785.36 1631.16C2741.65 1630.64 2697.52 1629.42 2654.27 1637.16C2641.69 1639.45 2629.72 1643.12 2618.09 1648.23C2605.96 1653.63 2592.21 1662.37 2579.59 1669.9C2575.69 1672.2 2557.98 1679.43 2561.56 1666.55C2562.69 1663.06 2566.71 1658.89 2570.18 1656.12Z" fill="#F9FAFB"/>
<path d="M2299.87 1597.32C2282.79 1561.25 2261.63 1526.58 2231.77 1500C2208.24 1479.1 2181.46 1476.28 2151.47 1478.44C2134.68 1479.66 2118.02 1480.85 2101.23 1482.07C2096.92 1482.43 2078.8 1484.41 2078.36 1476.73C2078.1 1472.25 2086.28 1468.2 2090.51 1466.54C2117.18 1455.93 2143.18 1447.56 2168.45 1441.55C2176.09 1439.71 2184.73 1438.55 2194.33 1438.15C2230.6 1436.61 2252.4 1457.13 2269.65 1486.67C2289.17 1519.98 2308.86 1553.39 2328.56 1586.57C2349.89 1622.37 2371.65 1656.58 2405.07 1681.69C2447.48 1713.49 2505.61 1721.42 2556.85 1714.11C2583.5 1710.34 2605.99 1704.61 2634.83 1697.71C2654.86 1692.91 2670.66 1694.1 2690.15 1701C2725 1713.42 2763.86 1723.95 2802.31 1724.88C2822.97 1725.33 2842.91 1721.51 2862.24 1713.23C2883.39 1704.13 2901.23 1693.77 2915.81 1682.29C2941.4 1662.05 2949.98 1634.57 2951.79 1603C2953.67 1570.67 2953.41 1542.42 2960.6 1513.94C2961.73 1509.42 2968.36 1491.03 2976.13 1496.81C2979.95 1499.61 2980.04 1507.09 2979.77 1511.51C2978.95 1527.86 2977.91 1544.2 2977.86 1560.62C2977.77 1579.78 2977.6 1598.88 2977.39 1618.08C2977.14 1640 2975.63 1662.36 2967.41 1682.38C2961.63 1696.56 2954.88 1699.45 2940.35 1705.47C2928.51 1710.35 2917.51 1716.61 2907.12 1724.23C2899.36 1729.99 2888.1 1740.22 2879.9 1745.97C2851.13 1766.16 2817.55 1772.73 2782.71 1768.78C2762.93 1766.52 2743.82 1760.17 2722.95 1753.89C2691.56 1744.52 2653.04 1737.72 2620.08 1742.35C2583.71 1747.37 2548.74 1752.94 2511.85 1748.76C2480 1745.2 2448.6 1736.06 2417.52 1721.38C2377.05 1702.19 2343.98 1681.61 2322.69 1642.63C2315.38 1628.99 2307.72 1613.9 2299.87 1597.32Z" fill="#F9FAFB"/>
<path d="M2179.18 1799.58C2162.22 1782.31 2145.73 1772.05 2122.98 1763.8C2101.06 1755.91 2076.99 1746.94 2058 1733.35C2027.53 1711.58 2037.71 1677.89 2044.15 1647.86C2048.02 1630.12 2049.64 1611.7 2049 1592.6C2048.12 1564.46 2066.26 1539.3 2095.02 1535.66C2121.07 1532.36 2147.18 1532.06 2173.29 1534.85C2185.37 1536.16 2197.06 1539.19 2208.23 1544C2223.61 1550.69 2232.06 1561.65 2239.28 1576.49C2251.88 1602.67 2263.85 1629.17 2275.18 1656.01C2276.07 1658.1 2275.83 1660.82 2273.51 1661.71C2269.23 1663.46 2259.65 1657.02 2256.11 1653.91C2238.61 1638.64 2231.13 1617.24 2215.52 1595.69C2183.48 1551.34 2110.77 1536.72 2082.68 1595.35C2069.15 1623.52 2066.23 1651.73 2073.74 1680.11C2080.42 1705.41 2090.78 1723.25 2114.6 1735.97C2127.56 1742.91 2141.5 1747.88 2155.15 1753.37C2180.41 1763.69 2200.86 1779.8 2216.69 1801.81C2220.49 1807.12 2224.66 1814.46 2224.63 1820.72C2224.59 1828.02 2218.99 1831.32 2212.45 1829.3C2199.01 1825.29 2188.67 1809.29 2179.18 1799.58Z" fill="#F9FAFB"/>
<path d="M2108.41 1998.37C2096.32 1976.02 2080.29 1956.87 2055.69 1946.8C2048.11 1943.75 2040.63 1940.76 2033.15 1937.76C2013.38 1929.91 2011.95 1907.29 2037.24 1909.28C2062.54 1911.28 2087.09 1922.46 2102.25 1943.19C2123.27 1971.73 2136.41 2010.77 2165.8 2031.6C2188.01 2047.43 2216.37 2044.71 2242.74 2037.13C2253.34 2034.08 2270.93 2028.73 2295.32 2021.19C2331.33 2010.03 2371.46 2006.06 2409.77 2000.85C2445.06 1996.14 2475.44 1986.67 2505.24 1966.47C2513.07 1961.2 2520.9 1955.93 2528.68 1950.75C2560.36 1929.64 2597.76 1922.56 2635.1 1928.82C2638.74 1929.46 2646.82 1930.96 2659.26 1933.27C2676.14 1936.44 2693.77 1931.22 2710.06 1935.43C2725.96 1939.54 2734.79 1950.03 2734.71 1966.9C2734.66 1993.84 2743.89 2016.2 2753.34 2040.86C2756.89 2050.14 2762.82 2066.9 2754.5 2075.33C2747.82 2082.03 2739.93 2076.87 2734.98 2070.13C2726.63 2058.77 2723.07 2044.34 2717.11 2027.22C2710.64 2008.55 2700.37 1991.79 2684.73 1979.36C2650.55 1952.11 2610.64 1947.41 2570.4 1963.54C2549.64 1971.94 2533.2 1983.08 2515.44 1994.73C2488.01 2012.7 2459.05 2023.54 2428.59 2027.15C2408.17 2029.56 2387.7 2032.07 2367.18 2034.66C2334.79 2038.68 2303.48 2046.73 2273.25 2058.81C2253.18 2066.79 2228.22 2079.27 2212.95 2086.02C2173.64 2103.36 2149.45 2087.81 2133.24 2050.38C2125 2030.97 2116.73 2013.71 2108.41 1998.37Z" fill="#F9FAFB"/>
<path d="M2312.97 1825.25C2312.58 1827.21 2310.69 1828.56 2308.74 1828.16L2296.92 1825.97C2294.97 1825.58 2293.7 1823.73 2294.01 1821.73L2294.07 1821.42C2294.46 1819.47 2296.35 1818.11 2298.31 1818.51L2310.12 1820.7C2312.07 1821.1 2313.34 1822.94 2313.03 1824.94L2312.97 1825.25Z" fill="#F9FAFB"/>
<path d="M2466.29 1907.78C2463.76 1906.15 2461.3 1905.02 2458.92 1904.16C2441.22 1898.14 2429.17 1894.1 2415.03 1886.39C2390.87 1873.26 2372.83 1855.05 2343.66 1867.71C2327.11 1874.9 2315.46 1879.43 2300.35 1882.15C2251.47 1890.77 2203.44 1885.68 2156.33 1870.02C2105.3 1852.99 2052.42 1830.82 2000.12 1811.95C1962.46 1798.43 1915.91 1789.82 1896.23 1836.76C1887.33 1858.01 1884.27 1887.29 1884.93 1909.02C1885.97 1944.34 1910.29 1967.51 1938.45 1984.57C1981.46 2010.53 2029.01 2031.58 2056.47 2077.4C2068.52 2097.55 2078.04 2119.39 2083.98 2142.1C2087.54 2155.72 2090.48 2170.04 2088.5 2184.14C2086.43 2198.42 2078.59 2209.29 2069.16 2219.73C2050.63 2239.99 2025.94 2256.96 1998.48 2261.76C1995.82 2262.24 1993.12 2262.57 1990.46 2262.82C1981.89 2263.45 1973.35 2264.21 1964.73 2264.92C1952.38 2265.98 1936.69 2271.81 1942.72 2288.18C1948.47 2303.82 1976.24 2308.78 1990.63 2307.14C2023.37 2303.53 2051.02 2278.95 2075.35 2255.84C2097.35 2234.87 2122.91 2212.21 2125.78 2179.97C2128.42 2151.03 2116.77 2118.98 2104.78 2093.15C2096.39 2075.26 2086.32 2058.14 2074.67 2042.21C2046.39 2003.48 2003.43 1985.89 1962.43 1964.58C1926.24 1945.7 1889.38 1907.6 1915.74 1864.7C1935.72 1832.09 1971.57 1841.87 2001.02 1851.42C2059.98 1870.66 2118.12 1890.14 2178.68 1903.99C2234.5 1916.7 2288.57 1919.98 2346.1 1918.66C2352.68 1918.53 2367.65 1918.12 2390.95 1917.53C2410.44 1917 2428.88 1920.45 2446.52 1927.81C2451.36 1929.8 2456.3 1930.37 2461.49 1929.46C2472.5 1927.33 2477.06 1914.54 2466.29 1907.78Z" fill="#F9FAFB"/>
<path d="M2181.9 1982.45C2177.39 1976.76 2178.41 1970.58 2184.54 1966.31C2194.18 1959.64 2206.93 1957.67 2218.49 1957.21C2243.38 1956.23 2268.2 1956.59 2293 1958.66C2298.27 1959.05 2308.94 1961.87 2304.17 1968.83C2300.45 1974.32 2292.53 1976.45 2286.93 1977.69C2266.55 1982.31 2246.09 1986.65 2225.6 1990.85C2213.41 1993.25 2189.81 1992.54 2181.9 1982.45Z" fill="#F9FAFB"/>
<path d="M3160.89 1123.15C3157.16 1118.12 3152.4 1114.12 3146.58 1111.01C3131.73 1103.14 3116.69 1095.62 3101.51 1088.36C3071.23 1073.9 3035.8 1069.15 3008.17 1091.82C2987.97 1108.3 2979.05 1129.19 2976.33 1154.54C2974.15 1175.85 2970.79 1193.07 2956.11 1209.07C2947.77 1218.16 2938.34 1226.32 2928.33 1233.47C2918.82 1240.32 2908.75 1246.75 2898.37 1252.09C2877.23 1263.03 2854.34 1270.13 2832.1 1278.52C2817.23 1284.12 2803.21 1293.96 2791.74 1304.99C2776.87 1319.27 2764.91 1337.57 2752.92 1355.74C2740.98 1373.82 2725.65 1388.31 2706.92 1399.43C2684.21 1412.81 2658.88 1425.54 2636.56 1435.94C2613.6 1446.66 2589.39 1449.73 2563.84 1445.31C2546.02 1442.19 2524.83 1439.38 2500.05 1436.87C2477.54 1434.59 2455.23 1430.71 2437.94 1414.86C2416.69 1395.44 2403.28 1367 2392.49 1340.23C2381.01 1311.82 2370.85 1282.66 2353.55 1257.33C2335.88 1231.43 2308.39 1224.11 2278.63 1222.96C2265.22 1222.4 2251.78 1221.71 2238.43 1220.84C2225 1219.92 2211.52 1218.87 2198.06 1217.59C2185.26 1216.34 2172.44 1214.73 2159.55 1213.66C2147.1 1212.6 2134.59 1212.08 2122.15 1213.08C2112.09 1213.92 2102.08 1215.7 2092.5 1218.97C2083.78 1221.92 2075.51 1226.14 2067.95 1231.33C2059.47 1237.15 2052.01 1244.23 2045.29 1252.05C2042.98 1254.77 2040.71 1257.63 2038.53 1260.54C2011.69 1296.66 1994.49 1336.85 1987.06 1380.86C1984.35 1396.5 1981.68 1417.65 1979.76 1434.76C1976.03 1468.35 1970.11 1500.96 1961.94 1532.67C1954.66 1561.1 1946.26 1590.96 1940.29 1620.35C1934.51 1649.38 1937.12 1685.56 1919.04 1710.41C1913.44 1718.06 1903.62 1729.2 1909.27 1739.64C1917.52 1755.29 1943.59 1744.11 1952.59 1736.52C1962.24 1728.37 1965.96 1717.51 1966.61 1705.19C1969.69 1652.72 1976.37 1602.02 1990.53 1551.22C2002.99 1506.58 2009.72 1463.22 2014.55 1417.32C2020.82 1357.02 2037.23 1283.13 2100.88 1258.57C2112.52 1254.04 2124.39 1249.75 2136.71 1247.31C2148.8 1244.86 2161.13 1244.47 2173.52 1244.59C2185.3 1244.59 2197.13 1245.3 2208.85 1246.42C2220.67 1247.58 2232.41 1249.28 2244.1 1251.29C2256.27 1253.45 2268.34 1256.01 2280.26 1258.84C2281.86 1259.26 2283.5 1259.6 2285.09 1260.02C2322.01 1268.9 2334.48 1297.17 2347.29 1329.17C2357.02 1353.52 2365.92 1373.19 2379.68 1395.2C2404.6 1435.27 2442.44 1463.75 2485.86 1481.94C2498.66 1487.31 2512.13 1491.67 2525.51 1492.9C2545.89 1494.69 2568.19 1490.11 2586.79 1485.43C2615.5 1478.34 2643.83 1469.9 2671.77 1460.1C2691.3 1453.3 2708.04 1445.76 2722.03 1437.62C2742.81 1425.46 2755.27 1409.95 2767.97 1389.89C2784.02 1364.6 2808.37 1345.16 2831.15 1324.85C2838.87 1317.92 2844.89 1313.02 2849.23 1309.93C2861.04 1301.61 2873.9 1295.7 2887.85 1291.76C2898.95 1288.64 2910.19 1286.29 2921.01 1282.44C2943.82 1274.26 2965.19 1259.8 2980.82 1241.25C2994.66 1224.91 3003.86 1204.97 3007.12 1183.8C3011.3 1156.4 3012.84 1121.6 3046.27 1113.23C3075.8 1105.91 3105.17 1123.07 3129.98 1136.68C3136.8 1140.46 3145.9 1144.46 3153.69 1143.4C3163.84 1141.58 3166.65 1130.91 3160.89 1123.15Z" fill="#F9FAFB"/>
<path d="M3095.9 2744.39C3096.39 2741.01 3096.49 2737.74 3096.35 2734.47C3096.06 2726.54 3093.96 2718.75 3091.14 2711.25C3087.44 2701.43 3081.86 2692.29 3075.13 2684.22C3068.3 2676.1 3060.36 2669.19 3052.03 2662.75C3043.18 2656.03 3033.99 2649.92 3024.7 2643.98C3023.79 2643.36 3022.91 2642.88 3022 2642.26C2994.98 2624.79 2969.32 2605.69 2944.95 2584.66C2918.33 2561.71 2895.93 2538.58 2892.37 2501.64C2890.01 2476.56 2894.8 2453.04 2898.77 2428.5C2900.93 2415.52 2902.19 2402.27 2902.97 2389.1C2903.79 2375.84 2904.11 2362.65 2903.86 2349.48C2903.58 2336.76 2903.08 2324.03 2902.36 2311.28C2901.59 2298.63 2900.51 2285.92 2899.15 2273.28C2893.09 2215.65 2883.56 2154.38 2856.47 2101.91C2848.52 2086.54 2842.72 2074.3 2839.02 2065.28C2829.43 2041.92 2824.62 2016.75 2824.49 1989.71C2824.45 1976.77 2824.36 1963.92 2824.4 1951.03C2824.46 1913.12 2807.18 1887.33 2774.24 1867.97C2754.4 1856.31 2733.39 1847.2 2711.28 1840.68C2689.57 1834.27 2668.6 1832.5 2648.52 1835.34C2636.01 1837.1 2617.93 1841.27 2605.25 1842.71C2554.99 1848.85 2507 1838.3 2463.58 1811.65C2441.71 1798.3 2419.79 1785.03 2397.83 1771.85C2364.29 1751.7 2326.21 1732.12 2286.94 1725.02C2268.86 1721.76 2250.22 1723.23 2233.06 1716.02C2212.96 1707.53 2194.92 1687.26 2183.87 1668.81C2173.62 1651.6 2165.52 1631.12 2146.88 1620.81C2137.69 1615.72 2127.11 1616.27 2122.71 1627.32C2118.02 1638.89 2125.44 1656.26 2132.8 1665.47C2138.42 1672.46 2147.27 1679.19 2154.83 1685.77C2166.41 1695.83 2178.37 1710.56 2186.24 1719.26C2206.35 1741.58 2233.41 1754.84 2262.47 1762.23C2305.65 1773.2 2342.96 1781.38 2380.25 1800.53C2394.84 1808.03 2416.2 1820.65 2444.25 1838.33C2466.54 1852.37 2486.2 1863.94 2510.31 1869.51C2521.93 1872.27 2540.76 1873.55 2554.42 1877.79C2562.59 1880.37 2570.72 1882.81 2578.9 1885.39C2601.57 1892.33 2625.26 1893.09 2648.46 1888.55C2681.71 1882.15 2709.78 1876.65 2740.1 1893.31C2765.27 1907.12 2781.02 1930.91 2784.53 1959.48C2785.32 1966.1 2786.15 1976.38 2786.96 1990.2C2788.65 2019.37 2796.19 2049.13 2805.6 2080.05C2813.75 2106.84 2822.12 2133.64 2830.81 2160.28C2841.32 2192.72 2847.94 2213.19 2850.54 2221.71C2853.96 2233.09 2857.06 2244.63 2859.67 2256.24C2862.39 2268.26 2864.75 2280.31 2866.62 2292.43C2868.53 2304.68 2869.98 2317.14 2871.03 2329.49C2872.08 2341.85 2872.55 2354.22 2872.52 2366.66C2872.51 2378.88 2871.96 2391.03 2870.73 2403.16C2869.43 2416.26 2867.63 2429.44 2865.51 2442.55C2856.98 2494.75 2845.51 2545.65 2887.17 2587.67C2902.64 2603.31 2919.61 2617.04 2938.09 2628.87C2967.17 2647.58 2998.53 2661.96 3027.23 2681.15C3037.51 2687.98 3046.89 2697.05 3053.52 2707.58C3054.86 2709.69 3056.11 2711.98 3057.14 2714.26C3058.56 2717.68 3059.66 2721.26 3060.41 2724.87C3062.58 2736.02 3060.94 2747.45 3055.34 2757.38C3050.22 2766.43 3042.22 2773.66 3032.74 2777.79C3029 2779.38 3025.01 2780.6 3020.91 2781.19C3006.18 2783.44 2989.07 2778.43 2975.2 2771.9C2953.12 2761.4 2932.63 2748.24 2913.82 2732.46C2901.4 2722.05 2888.9 2711.6 2876.44 2701.27C2866.01 2692.65 2855.11 2684.67 2843.82 2677.4C2832.62 2670.17 2821.03 2663.65 2809.11 2657.51C2797.14 2651.46 2784.84 2646.03 2772.34 2640.94C2759.75 2635.81 2746.87 2631.2 2734.23 2626.37C2731.92 2625.79 2729.6 2624.61 2727.44 2623.76C2725.28 2622.91 2723.08 2622.15 2720.92 2621.3C2715.94 2619.35 2710.92 2617.48 2705.94 2615.53C2691.36 2609.86 2673.42 2600.16 2666.59 2586.67C2659.18 2572.18 2665.32 2555.91 2676.14 2544.41C2686.03 2533.77 2696.04 2527.65 2709.23 2520.55C2731.58 2510.51 2754.09 2500.8 2776.73 2491.49C2780.6 2489.86 2787.04 2486.68 2795.97 2481.91C2844.77 2455.88 2833.32 2397.66 2819.01 2355.35C2812.96 2337.37 2806.99 2319.44 2800.94 2301.46C2795.45 2284.94 2792.05 2272.09 2790.64 2262.85C2788.15 2246.28 2785.97 2234.1 2784.11 2226.1C2778.23 2200.79 2767.36 2178.09 2751.28 2158C2739.66 2143.46 2720.31 2127.84 2710.5 2116.24C2702.69 2107.01 2696.11 2099.48 2690.62 2093.7C2663.54 2064.78 2628.29 2046.08 2587.92 2045.92C2566.62 2045.79 2545.68 2049.75 2524.48 2051.51C2512.71 2052.54 2504.43 2052.64 2499.57 2052.13C2478.96 2049.52 2458.91 2049.4 2439.6 2051.87C2406.94 2055.97 2374.19 2063.11 2341.54 2073.16C2319.91 2079.82 2300.23 2087.1 2280.33 2097.47C2262.11 2107.05 2248.55 2121.03 2239.77 2139.6C2224.56 2171.41 2215.24 2206.03 2195.87 2235.88C2177.41 2264.3 2152.14 2287.46 2125.08 2307.46C2124.85 2307.67 2124.53 2307.84 2124.24 2308.14C2117.41 2313.27 2110.35 2318.17 2103.18 2322.88C2065.9 2347.29 2022.58 2354.75 1979.18 2342.51C1945.07 2332.9 1907.23 2318.26 1876.96 2298.19C1856.61 2284.77 1836.04 2268.25 1815.19 2248.71C1792.23 2227.21 1775.83 2210.37 1754 2197.15C1751.43 2195.61 1748.71 2194.11 1746.04 2192.75C1743.37 2191.38 1740.64 2190.1 1737.91 2189.05C1688.33 2168.36 1628.28 2190.57 1581.93 2161.96C1551.25 2143.05 1538.04 2105.8 1527.07 2071.5C1518.63 2045.23 1510.14 2018.02 1513.24 1990.71C1516.45 1963.23 1531.42 1938.03 1550.82 1918.25C1570.22 1898.46 1594.03 1883.52 1618.01 1869.71C1641.95 1855.98 1668.5 1840.61 1676.59 1814.23C1682.18 1796.06 1677.41 1776.17 1669.81 1758.71C1662.21 1741.25 1651.93 1724.93 1645.65 1706.94C1639.69 1689.82 1637.47 1671.33 1639.29 1653.37C1640.57 1640.94 1641.53 1624.32 1629.67 1619.94C1621.6 1616.96 1612.68 1622.76 1607.99 1630C1597.04 1646.91 1601.19 1669.55 1609.38 1688.02C1618.51 1708.5 1631.75 1726.91 1640.74 1747.43C1649.69 1768.03 1653.82 1792.37 1643.85 1812.46C1637.3 1825.75 1625.34 1835.59 1613.34 1844.27C1589.06 1861.92 1562.92 1876.94 1539.67 1895.85C1516.41 1914.75 1495.69 1938.37 1486.79 1967.05C1474.28 2007.44 1492.82 2043.75 1503.67 2081.98C1515.42 2123.34 1517.53 2166.22 1557.71 2191.08C1579.75 2204.75 1605.88 2210.41 1631.56 2213.76C1660.63 2217.61 1689.75 2220.12 1718.59 2226.25C1718.9 2226.31 1719.3 2226.41 1719.61 2226.47C1719.92 2226.53 1720.37 2226.55 1720.63 2226.69C1749.78 2232.87 1769.27 2247.65 1790.26 2267.95C1813.07 2289.94 1835.26 2311.59 1862.12 2328.73C1895.09 2349.71 1930.41 2366.62 1967.49 2379.13C2044.43 2405.12 2121.01 2369.77 2176.28 2316.13C2201.52 2291.57 2225.57 2266.48 2243.28 2235.71C2255.3 2214.81 2263.25 2191.56 2273.6 2169.74C2286.45 2142.79 2305.99 2125.03 2333.94 2114.78C2359.26 2105.59 2385.27 2099.06 2411.92 2095.29C2463.61 2088 2515.48 2085.96 2567.54 2089.16C2620.89 2092.5 2665.89 2110.31 2699.13 2152.69C2721.1 2180.73 2737.56 2211.09 2746.69 2245.63C2750.4 2259.57 2753.2 2277.23 2756.13 2293.02C2759.79 2312.64 2764.16 2329.11 2769.06 2342.57C2784.99 2385.66 2804.87 2426.15 2750.35 2454.27C2722.95 2468.48 2695.8 2479.75 2670.37 2499.28C2648.64 2515.83 2633.13 2536.85 2623.63 2561.88C2615.37 2583.82 2611.2 2615.12 2627.29 2634.99C2638.27 2648.61 2662.45 2655.92 2680.2 2660.83C2693.3 2664.42 2706.3 2668.18 2719.45 2671.68C2732.29 2675.13 2745.28 2678.08 2758.22 2681.13C2771.11 2684.26 2783.96 2687.48 2796.55 2691.59C2801.27 2693.17 2805.99 2694.76 2810.57 2696.6C2814.97 2698.35 2819.56 2699.98 2823.67 2702.25C2833.15 2706.81 2843.06 2713.89 2853.28 2723.32C2873.71 2742.16 2892.81 2761.76 2916.63 2776.53C2937.36 2789.48 2960.21 2800.64 2983.86 2806.64C3018.68 2815.38 3053.4 2799.51 3078.51 2776.03C3087.59 2767.45 3093.99 2756.71 3095.9 2744.39Z" fill="#F9FAFB"/>
<path d="M2504.34 2826.27C2510.94 2803.18 2502.52 2782.87 2500.74 2760.06C2497.09 2714.38 2488.61 2669.81 2481.27 2624.61C2474.68 2584.05 2471.17 2545.77 2496.86 2510.49C2516.98 2483 2545.14 2462.46 2568.97 2438.39C2583.04 2424.11 2595.37 2408.43 2604.88 2390.83C2618.9 2364.87 2618.86 2338.91 2604.82 2312.85C2589.23 2284.01 2560.83 2248.18 2528.63 2237.79C2512.64 2232.61 2499.09 2236.65 2487.84 2249.97C2474 2266.31 2465.58 2287.94 2452.47 2305.03C2436.56 2325.72 2415.07 2342.05 2394.37 2357.57C2388.74 2361.77 2382.96 2366.01 2377.29 2370.07C2374.43 2372.14 2371.44 2374.03 2368.58 2376.1C2366.45 2377.67 2363.55 2380.86 2361.05 2381.65C2339.69 2396.92 2318.05 2416.83 2298.32 2437.01C2277.33 2458.42 2256.43 2479.89 2235.56 2501.49C2204.5 2533.67 2172.56 2558.97 2126.06 2559.99C2118.09 2560.15 2110.06 2560.4 2102.09 2560.56C2079.32 2561.22 2058.46 2567.74 2039.41 2580.28C2020.36 2592.83 2003.15 2608.22 1985.63 2622.76C1960.23 2643.68 1931.73 2661.51 1897.46 2652.61C1867.4 2644.78 1842.31 2628.16 1822.38 2602.62C1813.28 2590.96 1804.74 2578.92 1796.94 2566.38C1778.52 2536.87 1760.19 2507.42 1741.9 2477.88C1730.83 2460.09 1721.17 2441.61 1712.84 2422.37C1707.82 2410.79 1706.3 2400.93 1705.51 2388.72C1704.6 2375.07 1699.86 2364.22 1689.13 2355.54C1660.55 2332.42 1632.3 2345.47 1610.57 2369.46C1590.3 2391.84 1573.91 2411.57 1545.6 2422.65C1540.92 2424.52 1533.4 2426.53 1523.05 2428.92C1514.96 2430.73 1506.92 2432.68 1498.91 2434.76C1491.94 2436.62 1484.7 2438.33 1478.45 2442.19C1473.03 2445.59 1468.33 2450.99 1467.3 2457.39C1466.3 2463.13 1470.98 2469.14 1475.89 2471.4C1481.78 2474.2 1489.44 2472.95 1495.47 2471.14C1500.22 2469.78 1504.78 2467.73 1509.22 2465.5C1522.7 2458.9 1536.13 2452.38 1549.77 2446.1C1566.44 2438.29 1584.4 2427.31 1603.61 2413.03C1607.67 2410.02 1613.5 2406.73 1621.07 2403.37C1642.87 2393.49 1662.79 2402.11 1676.38 2420.72C1690.48 2440.06 1701.88 2458.71 1710.36 2476.43C1735.04 2527.68 1759.5 2584.06 1799.49 2625.61C1810.6 2637.13 1825.1 2645.84 1836.61 2657.46C1845.11 2666.05 1853.97 2677.92 1861.28 2684.14C1882.29 2701.93 1910.17 2696.78 1933.91 2686.71C1971.09 2670.94 2003.53 2646.38 2036.75 2623.72C2072.55 2599.3 2110.64 2583.12 2154.95 2589.57C2171.55 2592.01 2190.32 2598.97 2207.56 2594.67C2231.44 2588.69 2241.53 2567.76 2249.84 2546.75C2264.23 2510.6 2286.35 2480.33 2316.16 2455.79C2329.32 2445.01 2348.56 2434.4 2360.38 2425.63C2379.6 2411.34 2396.44 2393.92 2416.16 2380.37C2426.53 2373.19 2437.65 2367.34 2447.55 2359.57C2457.32 2351.83 2465.69 2342.06 2472.18 2331.36C2481.45 2316.26 2489.37 2300.3 2500.23 2286.65C2505.61 2280.03 2513.89 2273.53 2522.26 2272.44C2541.07 2270.05 2561.82 2301.75 2568.99 2316.46C2581.2 2341.5 2579.31 2369.71 2566.7 2394.16C2560.37 2406.43 2552.16 2416.52 2542.66 2426.46C2519.07 2451.13 2491.65 2472.18 2473.02 2501.31C2463.16 2516.65 2456.32 2533.78 2453.47 2551.74C2450.62 2569.48 2451.53 2589.53 2453.36 2607.91C2457.44 2648.68 2462.2 2689.25 2463.12 2730.34C2463.61 2750.95 2463.96 2771.6 2464.13 2792.15C2464.32 2815.56 2458.51 2837.84 2448.86 2859.01C2443.05 2871.57 2433.62 2889.44 2420.62 2912.53C2415.45 2921.67 2400.03 2948.11 2407.9 2957.83C2413.99 2965.43 2426.22 2954.26 2429.86 2948.72C2436.93 2938.01 2442.24 2925.52 2447.91 2914.02C2457.92 2893.85 2473.15 2874.39 2487.58 2855.74C2494.64 2847.31 2501.34 2836.85 2504.34 2826.27Z" fill="#F9FAFB"/>
<path d="M1817.85 2064.59C1810.21 2059.8 1802.4 2055.13 1794.62 2050.6C1777.01 2040.29 1759.22 2030.1 1741.32 2020.31C1735.02 2016.83 1728.58 2013.38 1722.09 2010.25C1719.45 2009.02 1715.24 2006.92 1712.29 2007.91C1709.02 2009.08 1711.09 2013.19 1712.8 2015.05C1718.84 2021.48 1726.44 2026.14 1733.9 2030.84C1760.12 2047.06 1786.39 2063.19 1812.62 2079.41C1823.62 2086.18 1834.7 2093 1846.99 2096.6C1849.25 2097.28 1852.24 2097.45 1853.35 2095.43C1854.24 2093.63 1852.98 2091.57 1851.65 2090.04C1845.97 2083.58 1838.93 2078.54 1831.88 2073.72C1827.22 2070.58 1822.6 2067.56 1817.85 2064.59Z" fill="#F9FAFB"/>
<path d="M2045.85 2163.52C2046.35 2160.14 2046.44 2156.88 2046.31 2153.6C2045.93 2145.62 2043.92 2137.88 2041.1 2130.38C2037.39 2120.56 2031.82 2111.42 2025.08 2103.35C2018.26 2095.23 2010.31 2088.32 2001.99 2081.89C1993.14 2075.16 1983.95 2069.05 1974.66 2063.11C1973.74 2062.49 1972.87 2062.01 1971.96 2061.39C1944.93 2043.92 1919.27 2024.82 1894.91 2003.79C1868.29 1980.84 1845.89 1957.71 1842.32 1920.77C1839.97 1895.69 1844.75 1872.17 1848.73 1847.63C1850.88 1834.65 1852.15 1821.41 1852.92 1808.23C1853.74 1794.97 1854.07 1781.78 1853.81 1768.61C1853.54 1755.89 1853.04 1743.16 1852.31 1730.42C1851.54 1717.76 1850.46 1705.05 1849.11 1692.41C1843.05 1634.78 1833.52 1573.51 1806.43 1521.04C1798.48 1505.67 1792.68 1493.43 1788.98 1484.42C1779.39 1461.05 1774.57 1435.88 1774.45 1408.84C1774.4 1395.9 1774.31 1383.05 1774.36 1370.16C1774.41 1332.25 1757.14 1306.47 1724.19 1287.1C1704.36 1275.44 1683.34 1266.33 1661.23 1259.81C1639.52 1253.4 1618.56 1251.64 1598.48 1254.47C1585.96 1256.23 1567.89 1260.4 1555.2 1261.84C1504.95 1267.98 1456.96 1257.44 1413.53 1230.78C1391.66 1217.43 1369.75 1204.16 1347.78 1190.98C1314.25 1170.83 1276.17 1151.25 1236.89 1144.15C1218.81 1140.89 1200.17 1142.36 1183.02 1135.15C1162.92 1126.66 1144.87 1106.39 1133.82 1087.94C1123.58 1070.73 1115.48 1050.25 1096.84 1039.94C1087.65 1034.85 1077.06 1035.4 1072.67 1046.45C1067.98 1058.03 1075.4 1075.39 1082.76 1084.6C1088.38 1091.6 1097.23 1098.32 1104.78 1104.9C1116.36 1114.96 1128.33 1129.69 1136.2 1138.39C1156.31 1160.72 1183.37 1173.97 1212.43 1181.36C1255.61 1192.34 1292.91 1200.51 1330.21 1219.66C1344.8 1227.16 1366.16 1239.78 1394.2 1257.46C1416.49 1271.5 1436.15 1283.07 1460.27 1288.64C1471.88 1291.4 1490.72 1292.68 1504.37 1296.92C1512.54 1299.5 1520.68 1301.94 1528.85 1304.52C1551.52 1311.46 1575.22 1312.22 1598.41 1307.69C1631.67 1301.28 1659.74 1295.78 1690.06 1312.44C1715.22 1326.25 1730.97 1350.05 1734.48 1378.61C1735.28 1385.23 1736.1 1395.51 1736.92 1409.33C1738.61 1438.5 1746.14 1468.26 1755.55 1499.18C1763.7 1525.97 1772.07 1552.78 1780.77 1579.41C1791.28 1611.85 1797.9 1632.32 1800.5 1640.84C1803.92 1652.22 1807.02 1663.76 1809.62 1675.37C1812.35 1687.39 1814.71 1699.44 1816.58 1711.56C1818.48 1723.81 1819.93 1736.27 1820.98 1748.63C1822.04 1760.98 1822.51 1773.35 1822.48 1785.79C1822.46 1798.01 1821.91 1810.16 1820.69 1822.29C1819.38 1835.39 1817.58 1848.57 1815.47 1861.68C1806.94 1913.88 1795.46 1964.78 1837.13 2006.8C1852.59 2022.44 1869.57 2036.17 1888.05 2048C1917.13 2066.71 1948.49 2081.09 1977.18 2100.28C1987.46 2107.11 1996.84 2116.18 2003.48 2126.71C2004.82 2128.82 2006.07 2131.11 2007.09 2133.39C2008.52 2136.81 2009.62 2140.39 2010.36 2144C2012.54 2155.15 2010.9 2166.59 2005.29 2176.51C2000.17 2185.56 1992.17 2192.8 1982.69 2196.92C1978.95 2198.51 1974.96 2199.73 1970.87 2200.32C1956.14 2202.57 1939.02 2197.56 1925.15 2191.03C1903.07 2180.53 1882.59 2167.37 1863.77 2151.59C1851.36 2141.18 1838.86 2130.73 1826.4 2120.41C1815.97 2111.78 1805.07 2103.81 1793.78 2096.53C1782.58 2089.31 1770.99 2082.78 1759.07 2076.64C1747.1 2070.6 1734.79 2065.16 1722.29 2060.07C1709.71 2054.94 1696.83 2050.33 1684.18 2045.5C1681.88 2044.92 1679.56 2043.75 1677.4 2042.89C1675.24 2042.04 1673.03 2041.28 1670.88 2040.43C1665.9 2038.48 1660.88 2036.61 1655.9 2034.66C1641.32 2028.99 1623.37 2019.29 1616.55 2005.8C1609.14 1991.31 1615.28 1975.05 1626.1 1963.55C1635.98 1952.9 1646 1946.78 1659.18 1939.68C1681.53 1929.64 1704.05 1919.93 1726.68 1910.62C1730.56 1908.99 1737 1905.82 1745.93 1901.04C1794.73 1875.01 1783.28 1816.79 1768.97 1774.48C1762.92 1756.5 1756.95 1738.57 1750.89 1720.59C1745.41 1704.07 1742 1691.22 1740.6 1681.99C1738.11 1665.41 1735.93 1653.23 1734.07 1645.23C1728.19 1619.92 1717.32 1597.22 1701.23 1577.13C1689.62 1562.59 1670.26 1546.97 1660.45 1535.37C1652.65 1526.14 1646.07 1518.61 1640.58 1512.83C1613.49 1483.91 1578.24 1465.21 1537.87 1465.05C1516.57 1464.92 1495.64 1468.88 1474.44 1470.64C1462.67 1471.67 1454.39 1471.77 1449.53 1471.26C1428.91 1468.65 1408.86 1468.53 1389.56 1471C1356.89 1475.1 1324.14 1482.24 1291.5 1492.29C1269.87 1498.95 1250.19 1506.24 1230.28 1516.6C1212.07 1526.18 1198.51 1540.16 1189.72 1558.73C1174.52 1590.55 1165.2 1625.16 1145.83 1655.01C1127.37 1683.43 1102.1 1706.59 1075.03 1726.59C1074.8 1726.8 1074.48 1726.97 1074.2 1727.27C1067.36 1732.4 1060.31 1737.3 1053.13 1742.01C1015.86 1766.42 972.533 1773.88 929.133 1761.65C895.024 1752.03 857.185 1737.39 826.912 1717.33C806.569 1703.9 785.996 1687.38 765.146 1667.84C742.184 1646.34 725.788 1629.5 703.958 1616.28C701.382 1614.74 698.669 1613.24 695.995 1611.88C693.322 1610.51 690.6 1609.24 687.869 1608.18C638.286 1587.5 578.233 1609.7 531.889 1581.09C501.211 1562.18 487.992 1524.93 477.022 1490.63C468.583 1464.36 460.093 1437.15 463.2 1409.84C466.404 1382.36 481.374 1357.16 500.774 1337.38C520.174 1317.6 543.982 1302.65 567.967 1288.84C591.904 1275.11 618.46 1259.74 626.542 1233.36C632.133 1215.19 627.367 1195.3 619.769 1177.84C612.171 1160.38 601.884 1144.06 595.606 1126.08C589.65 1108.95 587.422 1090.46 589.244 1072.5C590.523 1060.07 591.484 1043.46 579.626 1039.07C571.559 1036.09 562.634 1041.9 557.946 1049.13C546.991 1066.04 551.151 1088.68 559.333 1107.15C568.462 1127.63 581.705 1146.04 590.697 1166.56C599.641 1187.16 603.774 1211.51 593.807 1231.59C587.255 1244.88 575.297 1254.72 563.298 1263.4C539.018 1281.05 512.879 1296.08 489.622 1314.98C466.365 1333.88 445.642 1357.5 436.748 1386.18C424.233 1426.57 442.773 1462.88 453.624 1501.11C465.373 1542.47 467.481 1585.35 507.67 1610.21C529.704 1623.88 555.832 1629.54 581.519 1632.89C610.587 1636.74 639.71 1639.25 668.549 1645.38C668.86 1645.44 669.259 1645.54 669.57 1645.6C669.881 1645.66 670.327 1645.68 670.59 1645.82C699.74 1652 719.221 1666.78 740.219 1687.08C763.025 1709.07 785.22 1730.72 812.078 1747.86C845.042 1768.84 880.37 1785.75 917.447 1798.26C994.381 1824.25 1070.96 1788.9 1126.24 1735.26C1151.48 1710.71 1175.53 1685.61 1193.24 1654.84C1205.25 1633.94 1213.2 1610.69 1223.56 1588.87C1236.41 1561.93 1255.95 1544.16 1283.9 1533.92C1309.22 1524.72 1335.22 1518.19 1361.88 1514.43C1413.57 1507.13 1465.44 1505.09 1517.5 1508.29C1570.85 1511.63 1615.85 1529.44 1649.09 1571.82C1671.06 1599.86 1687.52 1630.22 1696.64 1664.76C1700.36 1678.7 1703.16 1696.36 1706.08 1712.15C1709.74 1731.77 1714.11 1748.25 1719.01 1761.7C1734.94 1804.8 1754.83 1845.28 1700.3 1873.4C1672.9 1887.61 1645.76 1898.88 1620.32 1918.41C1598.6 1934.96 1583.08 1955.98 1573.58 1981.01C1565.33 2002.95 1561.16 2034.25 1577.25 2054.12C1588.23 2067.74 1612.41 2075.06 1630.15 2079.96C1643.25 2083.55 1656.26 2087.31 1669.4 2090.81C1682.24 2094.26 1695.23 2097.22 1708.18 2100.26C1721.07 2103.39 1733.92 2106.62 1746.5 2110.72C1751.23 2112.3 1755.95 2113.89 1760.53 2115.74C1764.93 2117.49 1769.52 2119.11 1773.63 2121.38C1783.11 2125.94 1793.02 2133.02 1803.23 2142.45C1823.67 2161.29 1842.77 2180.89 1866.59 2195.67C1887.31 2208.61 1910.17 2219.77 1933.82 2225.77C1968.64 2234.52 2003.36 2218.64 2028.46 2195.16C2037.55 2186.58 2043.95 2175.84 2045.85 2163.52Z" fill="#F9FAFB"/>
<path d="M3085.2 1776.23C3091.81 1753.14 3083.39 1732.83 3081.61 1710.01C3077.96 1664.34 3069.48 1619.76 3062.14 1574.56C3055.55 1534.01 3052.04 1495.72 3077.73 1460.45C3097.85 1432.95 3126.01 1412.42 3149.84 1388.35C3163.91 1374.07 3176.24 1358.38 3185.75 1340.78C3199.77 1314.83 3199.73 1288.86 3185.69 1262.81C3170.1 1233.96 3141.65 1198.22 3109.5 1187.75C3093.51 1182.56 3079.96 1186.61 3068.71 1199.93C3054.87 1216.27 3046.45 1237.9 3033.33 1254.99C3017.43 1275.67 2995.94 1292.01 2975.24 1307.53C2969.6 1311.73 2963.83 1315.96 2958.16 1320.02C2955.3 1322.1 2952.31 1323.99 2949.45 1326.06C2947.32 1327.63 2944.41 1330.82 2941.92 1331.61C2920.56 1346.88 2898.92 1366.79 2879.19 1386.96C2858.2 1408.38 2837.3 1429.84 2816.43 1451.44C2785.37 1483.63 2753.43 1508.93 2706.93 1509.95C2698.96 1510.11 2690.93 1510.36 2682.96 1510.52C2660.19 1511.18 2639.33 1517.69 2620.28 1530.24C2601.23 1542.78 2584.02 1558.18 2566.5 1572.71C2541.1 1593.63 2512.6 1611.47 2478.33 1602.57C2448.26 1594.73 2423.17 1578.11 2403.25 1552.57C2394.15 1540.92 2385.61 1528.88 2377.81 1516.33C2359.39 1486.83 2341.06 1457.37 2322.77 1427.83C2311.7 1410.05 2302.04 1391.56 2293.71 1372.33C2288.68 1360.75 2287.17 1350.88 2286.38 1338.68C2285.47 1325.03 2280.73 1314.18 2269.99 1305.5C2241.42 1282.37 2213.17 1295.43 2191.44 1319.41C2171.17 1341.8 2154.77 1361.53 2126.47 1372.61C2121.78 1374.47 2114.27 1376.49 2103.92 1378.88C2095.83 1380.69 2087.78 1382.64 2079.78 1384.72C2072.8 1386.58 2065.57 1388.29 2059.32 1392.15C2053.9 1395.55 2049.2 1400.95 2048.17 1407.35C2047.17 1413.08 2051.85 1419.1 2056.76 1421.36C2062.65 1424.16 2070.31 1422.91 2076.33 1421.1C2081.09 1419.73 2085.65 1417.68 2090.09 1415.45C2103.57 1408.85 2117 1402.34 2130.64 1396.06C2147.31 1388.25 2165.26 1377.27 2184.48 1362.99C2188.54 1359.98 2194.37 1356.68 2201.94 1353.33C2223.74 1343.45 2243.66 1352.07 2257.25 1370.67C2271.35 1390.02 2282.75 1408.66 2291.23 1426.38C2315.91 1477.63 2340.37 1534.02 2380.36 1575.57C2391.47 1587.09 2405.97 1595.79 2417.48 1607.42C2425.98 1616.01 2434.84 1627.88 2442.15 1634.09C2463.16 1651.89 2491.04 1646.74 2514.78 1636.67C2551.96 1620.9 2584.4 1596.33 2617.62 1573.68C2653.41 1549.26 2691.51 1533.07 2735.82 1539.53C2752.41 1541.97 2771.19 1548.93 2788.43 1544.63C2812.31 1538.64 2822.4 1517.71 2830.71 1496.71C2845.1 1460.56 2867.22 1430.28 2897.03 1405.74C2910.19 1394.97 2929.43 1384.36 2941.25 1375.58C2960.47 1361.3 2977.31 1343.87 2997.03 1330.33C3007.4 1323.15 3018.52 1317.3 3028.42 1309.52C3038.19 1301.78 3046.56 1292.02 3053.05 1281.32C3062.32 1266.22 3070.23 1250.26 3081.1 1236.61C3086.48 1229.99 3094.76 1223.48 3103.13 1222.4C3121.94 1220 3142.69 1251.71 3149.86 1266.42C3162.07 1291.46 3160.18 1319.67 3147.56 1344.12C3141.23 1356.39 3133.03 1366.47 3123.53 1376.42C3099.94 1401.08 3072.52 1422.14 3053.89 1451.26C3044.03 1466.61 3037.19 1483.74 3034.34 1501.7C3031.49 1519.44 3032.4 1539.49 3034.23 1557.87C3038.31 1598.64 3043.06 1639.21 3043.99 1680.29C3044.48 1700.9 3044.83 1721.55 3045 1742.1C3045.19 1765.52 3039.38 1787.79 3029.73 1808.97C3023.92 1821.53 3014.49 1839.39 3001.49 1862.49C2996.32 1871.63 2980.9 1898.06 2988.77 1907.79C2994.85 1915.38 3007.09 1904.21 3010.72 1898.68C3017.8 1887.96 3023.11 1875.47 3028.78 1863.98C3038.79 1843.81 3054.02 1824.35 3068.44 1805.7C3075.51 1797.27 3082.21 1786.8 3085.2 1776.23Z" fill="#F9FAFB"/>
<path d="M1719 2647.37C1701.92 2611.3 1680.77 2576.62 1650.9 2550.04C1627.37 2529.14 1600.59 2526.33 1570.6 2528.48C1553.81 2529.7 1537.16 2530.89 1520.36 2532.12C1516.05 2532.47 1497.93 2534.45 1497.49 2526.78C1497.23 2522.29 1505.41 2518.24 1509.64 2516.58C1536.31 2505.97 1562.31 2497.61 1587.58 2491.59C1595.22 2489.76 1603.86 2488.6 1613.46 2488.19C1649.73 2486.66 1671.53 2507.17 1688.78 2536.72C1708.3 2570.02 1727.99 2603.43 1747.69 2636.61C1769.02 2672.41 1790.79 2706.62 1824.2 2731.74C1866.61 2763.54 1924.74 2771.47 1975.98 2764.16C2002.63 2760.39 2025.12 2754.65 2053.96 2747.75C2073.99 2742.95 2089.79 2744.14 2109.28 2751.04C2144.13 2763.46 2182.99 2773.99 2221.44 2774.92C2242.1 2775.38 2262.05 2771.55 2281.37 2763.27C2302.52 2754.17 2320.36 2743.81 2334.94 2732.34C2360.53 2712.1 2369.11 2684.61 2370.92 2653.04C2372.8 2620.72 2372.54 2592.46 2379.73 2563.98C2380.86 2559.46 2387.49 2541.07 2395.26 2546.86C2399.08 2549.66 2399.17 2557.14 2398.9 2561.56C2398.08 2577.9 2397.04 2594.24 2396.99 2610.67C2396.9 2629.82 2396.74 2648.93 2396.52 2668.12C2396.28 2690.04 2394.76 2712.4 2386.54 2732.43C2380.76 2746.6 2374.01 2749.5 2359.49 2755.52C2347.64 2760.39 2336.64 2766.65 2326.25 2774.27C2318.49 2780.04 2307.23 2790.27 2299.03 2796.01C2270.26 2816.21 2236.68 2822.78 2201.84 2818.82C2182.06 2816.56 2162.95 2810.21 2142.08 2803.93C2110.69 2794.57 2072.17 2787.77 2039.21 2792.39C2002.84 2797.41 1967.87 2802.98 1930.98 2798.81C1899.13 2795.24 1867.73 2786.1 1836.65 2771.42C1796.18 2752.23 1763.11 2731.65 1741.82 2692.68C1734.51 2679.03 1726.86 2663.94 1719 2647.37Z" fill="#F9FAFB"/>
<path d="M1875.3 2422.87C1869.7 2413.37 1887.05 2409.49 1892.74 2410.35C1922.23 2414.89 1949.14 2417.67 1973.86 2418.65C1985.92 2419.16 2028.89 2427.84 2017.2 2448.34C2011.7 2457.87 1996.66 2459.04 1986.92 2457.42C1973.85 2455.22 1961.85 2450.07 1949.81 2444.78C1933.1 2437.59 1916.19 2433.04 1898.15 2430.94C1891.6 2430.18 1878.89 2428.98 1875.3 2422.87Z" fill="#F9FAFB"/>
<path d="M2240.43 2729.65C2240.17 2731.57 2238.28 2732.92 2236.41 2732.57L2227.78 2731.23C2225.87 2730.97 2224.52 2729.08 2224.86 2727.21L2224.97 2726.82C2225.23 2724.9 2227.12 2723.55 2228.98 2723.89L2237.61 2725.24C2239.53 2725.5 2240.88 2727.39 2240.53 2729.25L2240.43 2729.65Z" fill="#F9FAFB"/>
<path d="M2189.77 2717.52C2189.42 2719.6 2187.34 2721.08 2185.21 2720.59L2169.18 2717.55C2167.09 2717.2 2165.61 2715.12 2166.1 2712.99L2166.16 2712.68C2166.52 2710.59 2168.59 2709.11 2170.72 2709.6L2186.75 2712.65C2188.84 2713 2190.32 2715.08 2189.83 2717.2L2189.77 2717.52Z" fill="#F9FAFB"/>
<path d="M1919.61 2610.92C1908.45 2617.66 1864.57 2587.9 1870.45 2579.96C1870.65 2579.61 1871.06 2579.49 1871.42 2579.46C1873.79 2579.29 1876.03 2579.38 1878.16 2579.88C1891.46 2582.89 1908.43 2588.16 1918.41 2597.8C1922.07 2601.31 1925.12 2607.57 1919.61 2610.92Z" fill="#F9FAFB"/>
<path d="M1310.71 2411.79C1297.82 2380.55 1274.69 2335.19 1285.34 2299.82C1290.94 2281.43 1308.47 2262.34 1329.44 2261.82C1334.64 2261.73 1338.87 2263.38 1342.03 2266.96C1355.63 2282.25 1333.62 2305.5 1327.7 2318.69C1310.14 2357.66 1329.12 2396.27 1341.79 2432.87C1355.05 2471.29 1351.94 2508.31 1337.14 2545.61C1329.69 2564.23 1322.2 2582.94 1314.66 2601.52C1313.07 2605.44 1310.26 2609.48 1306.24 2613.66C1301.28 2618.69 1293.41 2618.45 1293.64 2609.77C1293.79 2604.14 1294.73 2598.72 1296.52 2593.42C1299.91 2582.95 1303.21 2572.44 1306.51 2561.92C1314.45 2536.83 1319.42 2511.12 1321.67 2484.94C1323.74 2457.86 1320.87 2436.39 1310.71 2411.79Z" fill="#F9FAFB"/>
<path d="M1891.58 1361.75C1878.69 1330.51 1855.56 1285.14 1866.21 1249.78C1871.81 1231.39 1889.34 1212.29 1910.31 1211.78C1915.51 1211.68 1919.74 1213.34 1922.9 1216.91C1936.5 1232.21 1914.49 1255.46 1908.57 1268.64C1891.01 1307.61 1909.99 1346.22 1922.66 1382.83C1935.92 1421.25 1932.81 1458.27 1918 1495.57C1910.56 1514.19 1903.07 1532.9 1895.53 1551.47C1893.94 1555.39 1891.13 1559.44 1887.11 1563.61C1882.15 1568.64 1874.28 1568.4 1874.51 1559.73C1874.66 1554.1 1875.6 1548.67 1877.38 1543.38C1880.78 1532.91 1884.08 1522.4 1887.38 1511.88C1895.32 1486.79 1900.28 1461.08 1902.54 1434.9C1904.61 1407.81 1901.74 1386.34 1891.58 1361.75Z" fill="#F9FAFB"/>
<path d="M1817.09 1280.32C1815.21 1281.22 1812.92 1280.41 1812.01 1278.54L1805.89 1265.44C1804.98 1263.56 1805.79 1261.27 1807.67 1260.36L1807.94 1260.29C1809.81 1259.38 1812.11 1260.19 1813.01 1262.06L1819.14 1275.17C1820.04 1277.04 1819.23 1279.33 1817.36 1280.24L1817.09 1280.32Z" fill="#F9FAFB"/>
<path d="M1834.04 1491.17C1826.71 1485.41 1825.11 1470.12 1825.52 1461.54C1826.62 1438.27 1827.9 1415.09 1829.54 1391.89C1830.14 1382.73 1830.54 1373.13 1832.54 1364.98C1833.4 1361.34 1837.59 1356.46 1840.54 1361.86C1845.46 1370.75 1847.09 1385.37 1848.41 1395.58C1851.28 1416.83 1853.52 1438.18 1855.18 1459.56C1855.84 1468.49 1855.37 1475.54 1852.5 1483.21C1849.6 1490.52 1841.88 1497.45 1834.04 1491.17Z" fill="#F9FAFB"/>
<path d="M1058.37 1417.5C1046.28 1395.15 1030.24 1376 1005.64 1365.93C998.071 1362.88 990.587 1359.89 983.102 1356.89C963.332 1349.04 961.902 1326.42 987.198 1328.41C1012.49 1330.41 1037.05 1341.59 1052.21 1362.32C1073.22 1390.86 1086.37 1429.9 1115.76 1450.73C1137.97 1466.56 1166.33 1463.85 1192.69 1456.26C1203.29 1453.21 1220.88 1447.86 1245.28 1440.32C1281.28 1429.16 1321.42 1425.19 1359.73 1419.98C1395.01 1415.27 1425.4 1405.8 1455.2 1385.6C1463.03 1380.33 1470.86 1375.06 1478.64 1369.88C1510.31 1348.78 1547.71 1341.69 1585.05 1347.95C1588.69 1348.59 1596.78 1350.1 1609.22 1352.4C1626.09 1355.57 1643.72 1350.35 1660.02 1354.56C1675.92 1358.67 1684.74 1369.16 1684.67 1386.03C1684.62 1412.97 1693.85 1435.33 1703.29 1459.99C1706.85 1469.27 1712.77 1486.03 1704.45 1494.46C1697.77 1501.16 1689.89 1496 1684.93 1489.26C1676.59 1477.9 1673.03 1463.47 1667.07 1446.35C1660.6 1427.68 1650.33 1410.92 1634.69 1398.49C1600.51 1371.24 1560.6 1366.54 1520.36 1382.67C1499.6 1391.08 1483.15 1402.21 1465.39 1413.87C1437.97 1431.84 1409 1442.67 1378.55 1446.28C1358.13 1448.7 1337.66 1451.2 1317.14 1453.79C1284.74 1457.81 1253.43 1465.86 1223.21 1477.94C1203.14 1485.92 1178.18 1498.4 1162.9 1505.15C1123.6 1522.49 1099.4 1506.94 1083.19 1469.51C1074.96 1450.1 1066.68 1432.84 1058.37 1417.5Z" fill="#F9FAFB"/>
<path d="M1454.29 2245.4C1460.89 2222.31 1452.47 2202 1450.7 2179.19C1447.05 2133.52 1438.57 2088.94 1431.23 2043.74C1424.64 2003.18 1421.13 1964.9 1446.81 1929.62C1466.94 1902.13 1495.1 1881.59 1518.93 1857.52C1533 1843.25 1545.33 1827.56 1554.84 1809.96C1568.85 1784 1568.82 1758.04 1554.77 1731.98C1539.19 1703.14 1510.78 1667.31 1478.59 1656.93C1462.6 1651.74 1449.05 1655.78 1437.79 1669.1C1423.95 1685.44 1415.53 1707.07 1402.42 1724.16C1386.52 1744.85 1365.03 1761.19 1344.33 1776.71C1338.69 1780.9 1332.92 1785.14 1327.25 1789.2C1324.38 1791.27 1321.4 1793.16 1318.54 1795.24C1316.41 1796.8 1313.5 1799.99 1311.01 1800.79C1289.65 1816.05 1268 1835.97 1248.28 1856.14C1227.29 1877.55 1206.38 1899.02 1185.52 1920.62C1154.46 1952.8 1122.52 1978.11 1076.02 1979.12C1068.04 1979.28 1060.02 1979.53 1052.05 1979.69C1029.28 1980.35 1008.42 1986.87 989.367 1999.41C970.314 2011.96 953.111 2027.36 935.586 2041.89C910.186 2062.81 881.692 2080.64 847.418 2071.74C817.352 2063.91 792.263 2047.29 772.334 2021.75C763.241 2010.09 754.701 1998.05 746.899 1985.51C728.478 1956 710.145 1926.55 691.86 1897.01C680.785 1879.22 671.126 1860.74 662.796 1841.5C657.773 1829.92 656.259 1820.06 655.47 1807.85C654.561 1794.21 649.821 1783.36 639.082 1774.67C610.504 1751.55 582.253 1764.61 560.53 1788.59C540.261 1810.97 523.863 1830.7 495.56 1841.79C490.872 1843.65 483.358 1845.66 473.009 1848.05C464.921 1849.86 456.873 1851.81 448.863 1853.89C441.893 1855.75 434.66 1857.47 428.412 1861.32C422.988 1864.72 418.287 1870.12 417.26 1876.52C416.26 1882.26 420.933 1888.27 425.852 1890.53C431.733 1893.33 439.394 1892.08 445.423 1890.28C450.18 1888.91 454.741 1886.86 459.176 1884.63C472.655 1878.03 486.086 1871.51 499.731 1865.23C516.394 1857.42 534.352 1846.45 553.568 1832.16C557.632 1829.15 563.454 1825.86 571.023 1822.5C592.83 1812.63 612.748 1821.24 626.341 1839.85C640.44 1859.19 651.838 1877.84 660.32 1895.56C684.996 1946.81 709.458 2003.2 749.444 2044.74C760.557 2056.26 775.055 2064.97 786.566 2076.59C795.071 2085.18 803.931 2097.05 811.237 2103.27C832.249 2121.06 860.125 2115.91 883.864 2105.85C921.046 2090.07 953.491 2065.51 986.707 2042.86C1022.5 2018.43 1060.6 2002.25 1104.91 2008.7C1121.5 2011.14 1140.28 2018.1 1157.51 2013.81C1181.4 2007.82 1191.49 1986.89 1199.79 1965.88C1214.19 1929.73 1236.31 1899.46 1266.11 1874.92C1279.27 1864.14 1298.52 1853.53 1310.34 1844.76C1329.56 1830.47 1346.39 1813.05 1366.12 1799.5C1376.49 1792.32 1387.61 1786.48 1397.51 1778.7C1407.28 1770.96 1415.65 1761.19 1422.14 1750.49C1431.41 1735.39 1439.32 1719.43 1450.19 1705.78C1455.57 1699.16 1463.85 1692.66 1472.22 1691.57C1491.03 1689.18 1511.77 1720.88 1518.95 1735.59C1531.16 1760.63 1529.26 1788.84 1516.65 1813.29C1510.32 1825.56 1502.11 1835.65 1492.61 1845.59C1469.03 1870.26 1441.61 1891.32 1422.98 1920.44C1413.12 1935.78 1406.28 1952.91 1403.42 1970.88C1400.58 1988.62 1401.49 2008.66 1403.32 2027.04C1407.4 2067.81 1412.15 2108.38 1413.08 2149.47C1413.57 2170.08 1413.91 2190.73 1414.09 2211.28C1414.28 2234.7 1408.47 2256.97 1398.81 2278.14C1393.01 2290.7 1383.58 2308.57 1370.58 2331.66C1365.41 2340.8 1349.98 2367.24 1357.86 2376.97C1363.94 2384.56 1376.18 2373.39 1379.81 2367.85C1386.88 2357.14 1392.19 2344.65 1397.86 2333.16C1407.88 2312.98 1423.1 2293.52 1437.53 2274.87C1444.6 2266.44 1451.3 2255.98 1454.29 2245.4Z" fill="#F9FAFB"/>
<path d="M2035.16 1195.36C2041.76 1172.27 2033.34 1151.96 2031.56 1129.15C2027.92 1083.47 2019.43 1038.9 2012.1 993.696C2005.51 953.137 2002 914.855 2027.68 879.58C2047.81 852.085 2075.97 831.55 2099.8 807.477C2113.86 793.203 2126.2 777.513 2135.71 759.916C2149.72 733.957 2149.69 707.995 2135.64 681.941C2120.06 653.093 2091.6 617.353 2059.45 606.882C2043.47 601.695 2029.92 605.741 2018.66 619.058C2004.82 635.401 1996.4 657.027 1983.29 674.117C1967.39 694.805 1945.9 711.142 1925.2 726.662C1919.56 730.858 1913.79 735.094 1908.12 739.154C1905.25 741.228 1902.27 743.118 1899.4 745.192C1897.28 746.76 1894.37 749.951 1891.88 750.742C1870.52 766.011 1848.87 785.923 1829.14 806.093C1808.16 827.509 1787.25 848.974 1766.39 870.574C1735.33 902.761 1703.39 928.062 1656.89 929.079C1648.91 929.239 1640.89 929.487 1632.92 929.647C1610.15 930.31 1589.29 936.826 1570.24 949.371C1551.18 961.916 1533.98 977.312 1516.45 991.846C1491.05 1012.76 1462.56 1030.6 1428.29 1021.7C1398.22 1013.87 1373.13 997.244 1353.2 971.706C1344.11 960.047 1335.57 948.009 1327.77 935.464C1309.35 905.961 1291.01 876.506 1272.73 846.963C1261.65 829.18 1251.99 810.694 1243.66 791.458C1238.64 779.88 1237.13 770.015 1236.34 757.807C1235.43 744.162 1230.69 733.312 1219.95 724.628C1191.37 701.505 1163.12 714.562 1141.4 738.544C1121.13 760.93 1104.73 780.657 1076.43 791.742C1071.74 793.606 1064.23 795.62 1053.88 798.009C1045.79 799.821 1037.74 801.768 1029.73 803.851C1022.76 805.71 1015.53 807.422 1009.28 811.28C1003.86 814.68 999.156 820.079 998.129 826.481C997.129 832.214 1001.8 838.227 1006.72 840.491C1012.6 843.288 1020.26 842.04 1026.29 840.232C1031.05 838.864 1035.61 836.816 1040.04 834.584C1053.52 827.984 1066.95 821.471 1080.6 815.191C1097.26 807.381 1115.22 796.402 1134.44 782.118C1138.5 779.11 1144.32 775.816 1151.89 772.461C1173.7 762.583 1193.62 771.201 1207.21 789.805C1221.31 809.147 1232.71 827.795 1241.19 845.515C1265.87 896.764 1290.33 953.152 1330.31 994.699C1341.43 1006.22 1355.92 1014.92 1367.43 1026.55C1375.94 1035.14 1384.8 1047.01 1392.11 1053.22C1413.12 1071.02 1440.99 1065.87 1464.73 1055.8C1501.91 1040.03 1534.36 1015.46 1567.58 992.812C1603.37 968.387 1641.47 952.204 1685.78 958.661C1702.37 961.098 1721.15 968.057 1738.38 963.762C1762.26 957.774 1772.36 936.844 1780.66 915.839C1795.06 879.691 1817.18 849.415 1846.98 824.875C1860.14 814.099 1879.38 803.486 1891.21 794.714C1910.42 780.43 1927.26 763.004 1946.99 749.457C1957.36 742.28 1968.48 736.432 1978.38 728.654C1988.15 720.914 1996.52 711.147 2003.01 700.451C2012.28 685.351 2020.19 669.388 2031.06 655.741C2036.43 649.117 2044.72 642.613 2053.09 641.53C2071.9 639.135 2092.64 670.84 2099.82 685.551C2112.02 710.588 2110.13 738.798 2097.52 763.249C2091.19 775.518 2082.98 785.605 2073.48 795.549C2049.9 820.214 2022.48 841.272 2003.85 870.396C1993.99 885.741 1987.14 902.867 1984.29 920.832C1981.45 938.572 1982.36 958.618 1984.19 977.001C1988.27 1017.77 1993.02 1058.34 1993.95 1099.42C1994.43 1120.03 1994.78 1140.68 1994.96 1161.24C1995.14 1184.65 1989.34 1206.92 1979.68 1228.1C1973.88 1240.66 1964.45 1258.53 1951.45 1281.62C1946.28 1290.76 1930.85 1317.19 1938.73 1326.92C1944.81 1334.52 1957.05 1323.34 1960.68 1317.81C1967.75 1307.09 1973.06 1294.6 1978.73 1283.11C1988.75 1262.94 2003.97 1243.48 2018.4 1224.83C2025.47 1216.4 2032.17 1205.93 2035.16 1195.36Z" fill="#F9FAFB"/>
</svg>
