<svg width="36" height="36" viewBox="0 0 36 36" fill="none" xmlns="http://www.w3.org/2000/svg">
<g filter="url(#filter0_d_2384_1714)">
<ellipse cx="19.9149" cy="16.6667" rx="11.725" ry="11.6667" fill="url(#paint0_linear_2384_1714)"/>
<ellipse cx="19.9147" cy="16.6667" rx="9.715" ry="9.66667" fill="url(#paint1_linear_2384_1714)"/>
<ellipse cx="19.9149" cy="16.6667" rx="11.725" ry="11.6667" fill="#FF9255"/>
<ellipse cx="19.9147" cy="16.6667" rx="9.715" ry="9.66667" fill="url(#paint2_linear_2384_1714)"/>
<mask id="mask0_2384_1714" style="mask-type:alpha" maskUnits="userSpaceOnUse" x="8" y="5" width="24" height="24">
<ellipse cx="19.9149" cy="16.6667" rx="11.725" ry="11.6667" fill="url(#paint3_linear_2384_1714)"/>
</mask>
<g mask="url(#mask0_2384_1714)">
<path d="M22.4276 17.6751C28.7256 10.3418 34.9901 10.1751 37.3351 11.0085L41.1876 14.6751L37.8376 30.5085L13.5501 38.0085L-0.0174025 31.8418L-1.5249 17.1751C3.8351 20.3974 16.1296 25.0085 22.4276 17.6751Z" fill="url(#paint4_linear_2384_1714)"/>
<path d="M18.9099 16.6611C5.10897 8.33355 1.04336 10.8653 -1.04666 12.2122L-3.95001 16.6611L2.96449 31.3059L28.3338 33.056L40.1156 23.9541L38.198 9.33492C33.7249 13.6957 27.6968 21.9632 18.9099 16.6611Z" fill="url(#paint5_linear_2384_1714)"/>
</g>
</g>
<defs>
<filter id="filter0_d_2384_1714" x="0.189941" y="0" width="35.4502" height="35.3335" filterUnits="userSpaceOnUse" color-interpolation-filters="sRGB">
<feFlood flood-opacity="0" result="BackgroundImageFix"/>
<feColorMatrix in="SourceAlpha" type="matrix" values="0 0 0 0 0 0 0 0 0 0 0 0 0 0 0 0 0 0 127 0" result="hardAlpha"/>
<feOffset dx="-2" dy="1"/>
<feGaussianBlur stdDeviation="3"/>
<feColorMatrix type="matrix" values="0 0 0 0 0 0 0 0 0 0 0 0 0 0 0 0 0 0 0.25 0"/>
<feBlend mode="normal" in2="BackgroundImageFix" result="effect1_dropShadow_2384_1714"/>
<feBlend mode="normal" in="SourceGraphic" in2="effect1_dropShadow_2384_1714" result="shape"/>
</filter>
<linearGradient id="paint0_linear_2384_1714" x1="19.9149" y1="5" x2="19.9149" y2="28.3333" gradientUnits="userSpaceOnUse">
<stop stop-color="#FFC123"/>
<stop offset="1" stop-color="#F8832E"/>
</linearGradient>
<linearGradient id="paint1_linear_2384_1714" x1="19.9147" y1="7" x2="19.9147" y2="26.3333" gradientUnits="userSpaceOnUse">
<stop stop-color="#FFBF24"/>
<stop offset="1" stop-color="#F4924B"/>
</linearGradient>
<linearGradient id="paint2_linear_2384_1714" x1="19.9147" y1="7" x2="19.9147" y2="26.3333" gradientUnits="userSpaceOnUse">
<stop stop-color="#FFBF24"/>
<stop offset="1" stop-color="#F4924B"/>
</linearGradient>
<linearGradient id="paint3_linear_2384_1714" x1="19.9149" y1="5" x2="19.9149" y2="28.3333" gradientUnits="userSpaceOnUse">
<stop stop-color="#FFC123"/>
<stop offset="1" stop-color="#F8832E"/>
</linearGradient>
<linearGradient id="paint4_linear_2384_1714" x1="19.8313" y1="10.6665" x2="19.8313" y2="38.0085" gradientUnits="userSpaceOnUse">
<stop stop-color="#FF9D55" stop-opacity="0.6"/>
<stop offset="1" stop-color="#FD8A37" stop-opacity="0"/>
</linearGradient>
<linearGradient id="paint5_linear_2384_1714" x1="15.9104" y1="7.87991" x2="22.1611" y2="34.5052" gradientUnits="userSpaceOnUse">
<stop stop-color="#FFBD3E" stop-opacity="0.49"/>
<stop offset="1" stop-color="white" stop-opacity="0"/>
</linearGradient>
</defs>
</svg>
